<?xml version="1.0" encoding="iso-8859-1"?><!DOCTYPE svg PUBLIC "-//W3C//DTD SVG 1.1//EN" "http://www.w3.org/Graphics/SVG/1.1/DTD/svg11.dtd"><svg xmlns="http://www.w3.org/2000/svg" xmlns:xlink="http://www.w3.org/1999/xlink"><defs><svg viewBox="0 0 31.546 31.546" id="static--svg--arrow"><path d="M30.171 16.66H.888a.887.887 0 1 1 0-1.775h29.283a.888.888 0 1 1 0 1.775z"/><path d="M15.529 31.302a.887.887 0 0 1-.617-1.526l14.471-14.004L14.912 1.768a.889.889 0 0 1-.021-1.255.889.889 0 0 1 1.255-.02l15.13 14.642a.886.886 0 0 1 0 1.275l-15.13 14.643a.887.887 0 0 1-.617.249z"/></svg><svg viewBox="0 0 6.8 11.6" id="static--svg--arrow-1px"><path d="M.7 11.6l-.7-.8 5.4-5.1L0 .7.7 0l6.1 5.7z"/></svg><svg viewBox="0 0 6.8 11.6" id="static--svg--arrow-1px-left"><title>background</title><path fill="none" d="M-1-1h582v402H-1z"/><g><title>Layer 1</title><path d="M6.106.003l.7.8L1.4 5.899l5.395 5.006-.701.699L0 5.896z"/></g></svg><svg viewBox="0 0 6.8 11" id="static--svg--arrow-2px"><path d="M1.5 11L0 9.6l4-4.2-4-4L1.4 0l5.4 5.4z"/></svg><svg viewBox="0 0 494.938 494.938" id="static--svg--arrow-stats"><path d="M19.215 154.585l112.695 46.467a16.659 16.659 0 0 0 6.337 1.259c5.718 0 11.247-2.957 14.333-8.142l50.739-85.448 92.707-45.619 2.856 42.134a3.029 3.029 0 0 0 2.132 2.665 3.005 3.005 0 0 0 3.252-1.049L381.922 5.623a3.32 3.32 0 0 0 .339-3.526A3.316 3.316 0 0 0 379.269.22L251.672 0c-1.25-.008-2.356.764-2.815 1.935a3.038 3.038 0 0 0 .813 3.315l31.648 27.986-97.127 47.799a16.713 16.713 0 0 0-6.974 6.436l-45.929 77.33-99.367-40.98c-8.533-3.527-18.238.545-21.746 9.036-3.511 8.499.554 18.225 9.04 21.728zM50.221 241.837c-5.557 0-10.074 4.519-10.074 10.085V401.64c0 5.566 4.518 10.086 10.074 10.086h58.886c5.571 0 10.091-4.52 10.091-10.086V251.922c0-5.566-4.52-10.085-10.091-10.085H50.221zM375.761 82.027V401.64c0 5.566 4.52 10.086 10.075 10.086h58.901c5.556 0 10.075-4.52 10.075-10.086V82.027c0-5.566-4.52-10.086-10.075-10.086h-58.901c-5.556 0-10.075 4.52-10.075 10.086zM273.969 161.045c-5.57 0-10.09 4.52-10.09 10.086V401.64c0 5.566 4.519 10.086 10.09 10.086h58.886c5.557 0 10.075-4.52 10.075-10.086V171.131c0-5.566-4.519-10.086-10.075-10.086h-58.886zM162.103 286.386c-5.571 0-10.091 4.517-10.091 10.084v105.17c0 5.566 4.52 10.086 10.091 10.086h58.87c5.572 0 10.092-4.52 10.092-10.086V296.47c0-5.567-4.52-10.084-10.092-10.084h-58.87z"/></svg><svg viewBox="0 0 24 24" id="static--svg--arrow-up-thick"><path d="M12 3.172L5.586 9.586a2 2 0 1 0 2.828 2.828L10 10.828v7.242a2 2 0 0 0 4 0v-7.242l1.586 1.586c.391.391.902.586 1.414.586s1.023-.195 1.414-.586a2 2 0 0 0 0-2.828L12 3.172z"/></svg><svg viewBox="0 0 295.655 295.655" id="static--svg--arrows"><path d="M165.929 252.28h-90.64a9.282 9.282 0 0 0-9.282 9.282v24.81a9.282 9.282 0 0 0 9.282 9.282h90.64a9.282 9.282 0 0 0 9.282-9.282v-24.81a9.282 9.282 0 0 0-9.282-9.282zM100.691 237.017h29.677c25.295 0 44.843-20.945 44.843-44.221v-.623-66.846c0-8.373-6.788-15.161-15.161-15.161-5.451 0-10.216 2.886-12.888 7.204v-4.931c0-8.373-6.788-15.161-15.161-15.161-5.451 0-10.216 2.886-12.888 7.204v-3.414c0-8.373-6.788-15.161-15.161-15.161-5.451 0-10.216 2.886-12.888 7.205V47.247c0-8.373-6.788-15.161-15.161-15.161s-15.161 6.788-15.161 15.161v114.055l-17.001-21.798c-5.148-6.602-14.677-7.78-21.279-2.631-6.603 5.149-7.78 14.677-2.631 21.279l47.665 61.114c7.175 10.696 19.376 17.751 33.195 17.751zM276.101 29.091L249.938 2.928c-3.906-3.904-10.236-3.904-14.143 0-3.905 3.905-3.905 10.237 0 14.143l9.092 9.092H134.01l9.092-9.092c3.905-3.905 3.905-10.237 0-14.143-3.906-3.904-10.236-3.904-14.143 0l-26.163 26.163c-3.905 3.905-3.905 10.237 0 14.143l26.163 26.163c1.953 1.952 4.512 2.929 7.071 2.929s5.118-.977 7.071-2.929c3.905-3.905 3.905-10.237 0-14.143l-9.092-9.092h110.878l-9.092 9.092c-3.905 3.905-3.905 10.237 0 14.143a9.972 9.972 0 0 0 7.071 2.929 9.97 9.97 0 0 0 7.071-2.929L276.1 43.234c3.907-3.905 3.907-10.237.001-14.143z"/></svg><svg viewBox="0 0 41 43.3" id="static--svg--bag"><path d="M35.2 17.7c.8-.1 1.4-.8 1.4-1.6 0-.9-.7-1.6-1.6-1.6C35 .1 20.5 0 20.5 0S6 .1 6.1 14.4c-.9 0-1.6.7-1.6 1.6 0 .8.6 1.5 1.4 1.6-1.7.6-6 2.6-5.8 9.4 0 1.2.1 2.6.5 4.2.6 2.5 1.9 4.6 3.5 6.1 0-.1-.1-.2-.1-.3-.3-1.2-.6-2.4-.6-3.7 0-4.4 2.1-8.3 5.5-10.9v.1c.1.2.3.4.5.6-2-2.4-2.7-4.9-2.9-5.5.7-.2 1.2-.8 1.2-1.6 0-.7-.5-1.3-1.1-1.6.3-1.1 3.2-12.1 13.9-12.1s13.6 11 13.9 12.3c-.7.2-1.1.8-1.1 1.6 0 .7.5 1.4 1.2 1.6-.1.6-.8 3.1-2.9 5.5l.1-.1.3-.3c3.3 2.7 5.3 6.5 5.3 10.8 0 1.4-.2 2.8-.7 4.1 0 .1 0 .1-.1.2 1.8-1.6 3.2-3.7 3.9-6.5.4-1.6.5-3 .5-4.2.2-7-4-9.1-5.7-9.6z"/><path d="M33.9 31.6c0-2.8-1.2-5.4-3.2-7.5.3-.3.5-.5.7-.8-2.1 2.3-5.5 4.5-11 4.5-5.6 0-9-2.2-11-4.6.1.1.2.2.2.3l.2.2c.1.1.2.2.2.3-2.1 2.1-3.3 4.8-3.3 7.7 0 4 1 7.5 4.1 9.8-.1 0-.2 0-.3-.1 2.5.9 4.9 1.4 6.8 1.7 2 .3 4.1.3 6.2 0 1.6-.2 3.7-.7 5.9-1.4h-.1c3.4-2.4 4.6-6 4.6-10.1zm-13.4 4.6c-1.7 0-3.1-1.4-3.1-3.1 0-1.7 1.4-3.1 3.1-3.1 1.7 0 3.1 1.4 3.1 3.1 0 1.7-1.4 3.1-3.1 3.1z"/><circle cx="20.5" cy="33.1" r="1.2"/><path d="M9.7 23.4l.2.2c-.1 0-.1-.1-.2-.2zM8.9 22.5c.1.2.3.4.5.6-.2-.2-.3-.4-.5-.6zM31.6 23.1c0-.1.1-.1.1-.2 0 .1-.1.2-.1.2zM9.4 23.1l.3.3-.3-.3z"/></svg><svg viewBox="0 0 28 32" id="static--svg--balloon"><path d="M28 9.401C28 3.075 23.421 0 14 0S0 3.075 0 9.401c0 7.275 13.173 15.668 13.733 16.021l.005.001c.011.007.023.007.035.013.072.038.148.064.227.064s.155-.026.227-.063c.011-.006.024-.006.035-.013l.005-.001C14.827 25.069 28 16.677 28 9.401zm-10 0c0 5.56-2.876 12.121-4 14.473-1.124-2.351-4-8.909-4-14.473C10 1.871 12.283 1 14 1s4 .871 4 8.401zm-9 0c0 4.797 1.979 10.141 3.331 13.236C9.589 19.74 5 14.181 5 9.401c0-4.69 1.918-7.327 5.977-8.132C9.653 2.717 9 5.411 9 9.401zm10 0c0-3.99-.652-6.684-1.977-8.132C21.082 2.074 23 4.712 23 9.401c0 4.78-4.589 10.338-7.331 13.236C17.021 19.543 19 14.198 19 9.401zm-18 0c0-3.971 1.987-6.47 6.156-7.632C5.042 3.301 4 5.833 4 9.401c0 4.203 3.135 8.792 5.838 11.973C5.98 18.306 1 13.544 1 9.401zm17.162 11.973C20.865 18.193 24 13.605 24 9.401c0-3.568-1.042-6.101-3.156-7.632C25.013 2.931 27 5.43 27 9.401c0 4.143-4.98 8.905-8.838 11.973zM11.5 27a.5.5 0 0 0-.5.5v3c0 .841.659 1.5 1.5 1.5h3c.841 0 1.5-.659 1.5-1.5v-3a.5.5 0 0 0-.5-.5h-5zm4.5 3.5c0 .294-.206.5-.5.5h-3a.479.479 0 0 1-.5-.5V28h4v2.5z"/></svg><svg viewBox="0 0 21.7 45.1" id="static--svg--boots"><path d="M7.9 41.6c.3 0 .6-.1.8-.2.3-.2.8-.5 1.5-1.1 1.3-1.1 7.4-7.6 8.7-8.9.5-.5 1.2-.8 1.9-.8h.4c-.1-.6-.3-1.3-.5-2.1-1.1-4.7-.7-7.5-.7-9L20.9 0h-13s3.2 22.6 2.1 27.8-2.9 7.3-2.9 7.3-2.8 5.1-6.5 6.1c-.2.1-.4.2-.5.4h7.8z"/><path d="M20.8 32.1c-.3 0-.6.1-.8.3-1.2 1.3-7.4 7.8-8.7 9-.6.5-1.2 1-1.7 1.3-.5.3-1 .4-1.6.4H0v.1c0 .4.2.8.5 1.1.3.3.7.6.9.7.4.1 6.5 0 8.8 0 .5 0 .9-.2 1.2-.6l6.7-7.5.7 3.7.6 4.4h1l1.3-9.9c.2-1.1.2-1.6-.1-3.1h-.8z"/></svg><svg viewBox="0 0 18 17" id="static--svg--camera"><path d="M9 7c1.654 0 3 1.346 3 3s-1.346 3-3 3-3-1.346-3-3 1.346-3 3-3m0-1a4 4 0 1 0 0 8 4 4 0 0 0 0-8z"/><path d="M12 1c.551 0 1 .449 1 1v2h3c.551 0 1 .449 1 1v10c0 .551-.449 1-1 1H2c-.551 0-1-.449-1-1V5c0-.551.449-1 1-1h3V2c0-.551.449-1 1-1h6m0-1H6a2 2 0 0 0-2 2v1H2a2 2 0 0 0-2 2v10a2 2 0 0 0 2 2h14a2 2 0 0 0 2-2V5a2 2 0 0 0-2-2h-2V2a2 2 0 0 0-2-2z"/></svg><svg viewBox="0 0 120 70" id="static--svg--cash-register"><path d="M68 41h6v2h-6zM59 41h6v2h-6zM68 37h6v2h-6zM59 37h6v2h-6zM68 33h6v2h-6zM59 33h6v2h-6zM80 43h24V25H80v18zm2-16h20v14H82V27z"/><path d="M112 53V23c0-5.523-4.477-10-10-10h-4V8h7V0H86v8h7v5H66.199c-3.573-3.995-9.086-6.671-16.429-6.671-10.436.434-17.114 7.824-18.281 19.991-.502 5.237-2.125 16.584-11.542 16.584S8.816 27.762 8.816 24.762H0c0 5 2.531 20.047 19.947 20.047 17.417 0 20.053-11.416 20.625-18.333.845-10.216 3.568-17.893 10.222-17.893 2.802 0 5.23 1.809 7.104 4.422C52.422 13.061 48 17.512 48 23v30h-8v17h80V53h-8zM5.144 35.798c-2.09-3.245-2.829-7.036-3.058-9.036h5.2l-.212.119c.343 0 1.682 10.735 5.4 14.772-3.074-1.16-5.551-3.093-7.33-5.855zM38.6 26.254c-.462 5.58-2.16 12.611-10.49 15.32 2.893-2.967 4.684-7.94 5.35-14.885.826-8.614 4.445-14.387 10.375-16.785-4.256 4.512-4.953 12.93-5.235 16.35zM68.849 24h-5.038c-.584-5.679-2.83-10.656-6.199-13.846C63.928 12.33 68.008 16.489 68.849 24zM50 23c0-4.411 3.589-8 8-8h1.142c1.507 2.774 2.479 6.05 2.766 9H59v2h15v-2h-3.082c-.283-3.218-1.348-6.316-3.149-9H102c4.411 0 8 3.589 8 8v30H50V23zm68 45H42V55h76v13z"/></svg><svg viewBox="9.235 13.119 21.529 13.762" id="static--svg--caution"><path d="M19.941 14.742l8.765 11.139H11.28l8.661-11.139m-.005-1.623L9.235 26.881h21.529L19.936 13.119z"/><path d="M19.423 17.892h1v5h-1zM19.415 23.884h1v1h-1z"/></svg><svg viewBox="0 0 1024 1024" id="static--svg--check"><path class="anpath1" d="M864 128L384 608 160 384 0 544l384 384 640-640z"/></svg><svg viewBox="0 0 1024 1024" id="static--svg--clock"><path class="aopath1" d="M512 0C229.23 0 0 229.23 0 512s229.23 512 512 512 512-229.23 512-512S794.77 0 512 0zm146.744 749.256L448 538.51V256h128v229.49l173.256 173.254-90.512 90.512z"/></svg><svg viewBox="162.287 252.287 287.424 287.424" id="static--svg--close"><path d="M347.924 422.387c-4.92-4.813-12.803-4.726-17.612.188-4.812 4.915-4.727 12.801.187 17.612l98.047 95.971a12.418 12.418 0 0 0 8.712 3.554c3.231 0 6.462-1.252 8.9-3.742 4.812-4.916 4.727-12.801-.187-17.612l-98.047-95.971zM259.83 367.442c2.431 2.431 5.619 3.647 8.807 3.647s6.375-1.216 8.807-3.647c4.863-4.863 4.863-12.749 0-17.612l-93.896-93.896c-4.863-4.863-12.751-4.863-17.612 0-4.863 4.863-4.863 12.749 0 17.612l93.894 93.896zM446.063 255.934c-4.863-4.863-12.751-4.863-17.612 0L165.934 518.451c-4.863 4.864-4.863 12.749 0 17.612a12.417 12.417 0 0 0 8.807 3.647c3.188 0 6.375-1.217 8.807-3.647l262.515-262.515c4.864-4.865 4.864-12.749 0-17.614z"/></svg><svg viewBox="0 0 38.5 51.3" id="static--svg--clothes"><path d="M16.9 10.2l.4-6.3C14.4 2.6 12.8 0 12.8 0l-.5.8c-.3.5-.8 1.8-1.1 2.7 1 2.9 4.2 5.6 5.7 6.7z"/><path d="M18.7 4.2h-.5l-.5 7.9-.7-.5c-.2-.1-4.7-3.3-6.6-7-.9.3-4.4 1.5-6.1 2.8-2 1.5-1.8 4.9-2.2 6.6C1.8 15.7 0 50.2 0 50.2s3.3 2.5 5.8 0l1.3-26.4c0-.6.5-1 1-1.2-.2-.5-.4-1-.5-1.5-.6-2-.9-4-1.1-5.5-.2-1.5-.2-2.5-.2-2.5s.2 1 .5 2.4c.4 1.5.9 3.4 1.7 5.2.4.9.9 1.8 1.4 2.5.5.7 1.1 1.3 1.6 1.7.3.2.5.3.7.4.2.1.4.2.6.2.2.1.3 0 .4.1h.2c.5.1.9.6.9 1.1-.1.5-.6.9-1.1.9h-.1s-.1 0-.2-.1c-.1 0-.4-.1-.6-.2-.3-.1-.6-.2-.9-.4-.3-.2-.6-.4-1-.7-.5-.5-1-1.1-1.4-1.9l-.4 22.3s2.3 2.1 5 2.1c3.1-.1 4.4-1 4.9-1.6h.3V4.2zM21.6 10.2c1.4-1.3 4.5-4.2 5.7-7-.3-.9-.8-2-1.1-2.5l-.4-.7s-1.7 2.7-4.6 4l.4 6.2z"/><path d="M36.4 14c-.3-1.7-.2-5.1-2.2-6.6-1.9-1.4-6-2.8-6.5-2.9-2 3.6-6.1 6.9-6.3 7l-.7.6-.6-8h-.4V47h.3c.5.6 1.8 1.5 4.9 1.6 2.7.1 5-2.1 5-2.1l-.3-22.3c-.4.8-.9 1.5-1.5 2-.3.3-.6.5-1 .7-.3.2-.6.3-.9.4-.2.1-.5.1-.6.2-.1 0-.2.1-.2.1-.5.1-1.1-.2-1.2-.7-.1-.5.2-1.1.7-1.2H25.2c.1 0 .2 0 .4-.1.2 0 .4-.1.6-.2.2-.1.5-.2.7-.4.5-.4 1.1-1 1.6-1.7s1-1.6 1.4-2.5c.8-1.8 1.4-3.7 1.7-5.2.4-1.5.5-2.4.5-2.4s0 1-.2 2.5-.5 3.5-1.1 5.5c-.2.5-.4 1.1-.6 1.6.6.1 1.1.7 1.1 1.3l1.3 26.1c2.5 2.5 5.8 0 5.8 0s-1.6-34.5-2-36.2zM22.1 38.4h-1.8v-1.8h1.8v1.8zm0-7.8h-1.8v-1.8h1.8v1.8zm0-6.4h-1.8v-1.8h1.8v1.8zm0-7.9h-1.8v-1.8h1.8v1.8z"/></svg><svg viewBox="0 0 35.7 34.3" id="static--svg--cosmetics"><path d="M.7 7.3c.2.2.7.2 1.7-.2s2.1-1.3 3.2-2.3c2-2 2.8-3.9 2.6-4.6-.8-.6-3 .4-4.9 2.4C1.7 4.1.7 5.9.7 6.9v.4z"/><path d="M9.5 17.7V14h-1V2.6c-.5 1-1.3 2-2.2 2.9-1.1 1.1-2.4 2-3.5 2.5-.6.3-1.1.4-1.6.4-.2 0-.3 0-.5-.1v5.8H0v3.7h9.5zM0 19.5V32c0 .7.5 1.2 1.2 1.2h7.1c.7 0 1.2-.5 1.2-1.2V19.5H0zM27.1 15.6h-1.4v-1.5h1.2v-7c0-.2-.3-.3-.4-.2l-1.8 1.4h-3.6v2H18c-1.1-1-3.2-1.1-5.1-.1-2.3 1.2-3.5 3.5-2.7 5.1.8 1.6 3.4 2 5.7.8 1.8-.9 3-2.6 2.9-4H21v2h1.1v1.5h-1s-8.6 7.2-8.6 12.8c0 3.3 5 5.9 6.8 5.9h9.6c1.7 0 6.8-2.6 6.8-5.9 0-5.6-8.6-12.8-8.6-12.8zm-3 13.6c-2.7 0-4.8-2.2-4.8-4.8 0-2.7 2.2-4.8 4.8-4.8 2.7 0 4.8 2.2 4.8 4.8.1 2.6-2.1 4.8-4.8 4.8z"/></svg><svg viewBox="0 0 17 15" id="static--svg--dialogs"><path d="M15 6v4H8V6h7m0-2H8a2 2 0 0 0-2 2v4a2 2 0 0 0 2 2h3l3 3v-3h1a2 2 0 0 0 2-2V6a2 2 0 0 0-2-2z"/><path d="M9 2v2c-.399.194-3 2-3 2H2V2h7m0-2H2a2 2 0 0 0-2 2v4a2 2 0 0 0 2 2h1v3l3-3h1s1-.667 1-2c0 0 3-.84 3-1.75V2a2 2 0 0 0-2-2z"/></svg><svg viewBox="0 0 33 48.6" id="static--svg--dress"><path d="M27.9 25.5c-.9-1.7-2.1-3.1-3.2-4.2-2.3-2.1-4.7-3.1-4.7-3.1-.3-1.3-.2-3.3 1.8-5.3s2.3-6.5 2.3-6.5l2.3-3.6c.4-.6.2-1.4-.4-1.8L24.6.1c-.6-.3-1.6 0-1.9.7l-1.9 4.7h-2.9l-1.4 1.9-1.4-1.9h-2.9L10.3.8C10 .1 9-.2 8.4.2l-1.5 1c-.6.3-.8 1.1-.4 1.7l2.3 3.6s.3 4.5 2.3 6.5 2.1 3.9 1.8 5.3c0 0-2.2.9-4.5 2.9-.3.2-.6.5-.8.8-.3.3-.5.5-.7.8-.5.6-1 1.3-1.4 2-.1.2-.3.4-.4.6-2.6 5.2-5.1 18-5.1 18s3.4 0 7.5 4.1c1.1.9 5-.3 5.5 0s1.3 1.2 3.5 1.2 3-.9 3.5-1.2 4.4.9 5.5 0c4.1-4.1 7.5-4.1 7.5-4.1s-2.5-12.8-5.1-17.9zm-14.2-2.1c-.1.1-.3.2-.6.5s-.7.7-1.2 1.3c-.2.3-.5.6-.8.9-.3.3-.6.7-.8 1.1-.3.4-.6.8-.8 1.2-.3.4-.5.8-.8 1.3-.3.4-.5.9-.8 1.3-.2.4-.4.9-.7 1.3l-.6 1.2c-.2.4-.3.8-.5 1.1-.6 1.4-.9 2.4-.9 2.4s.3-1 .7-2.5c.1-.4.2-.8.4-1.2.2-.4.3-.8.5-1.3.2-.4.3-.9.5-1.4.2-.5.4-.9.6-1.4.2-.5.4-.9.7-1.4.2-.4.5-.9.7-1.3.2-.4.5-.8.7-1.2.2-.4.5-.7.7-1.1.5-.6.8-1.2 1.2-1.5.3-.4.5-.6.5-.6.3-.4.9-.4 1.2 0 .4.3.4.9.1 1.3zm1.6-2.8c0 .5-.4 1-1 1-.5 0-1-.4-1-1 0-.4.3-.8.6-.9.1-1.2.3-4.4 0-5.5-.2-1.1-2.5-4.4-3.4-5.5-.2-.2-.1-.5.1-.7.2-.2.5-.1.7.1.3.4 3.2 4.4 3.6 5.9.3 1.5 0 5.7 0 5.9v.1c.2 0 .4.3.4.6zm3.1 1c-.5 0-1-.4-1-1 0-.3.2-.6.4-.8 0-.2-.3-4.4 0-5.9S21 8.4 21.4 8c.2-.2.5-.3.7-.1.2.2.3.5.1.7-.9 1.2-3.2 4.4-3.4 5.5-.2 1.1-.1 4.4 0 5.6.3.2.6.5.6.9 0 .6-.4 1-1 1zm8.3 13c-.1-.4-.3-.7-.5-1.1l-.6-1.2c-.2-.4-.4-.9-.7-1.3-.3-.4-.5-.9-.8-1.3-.3-.4-.5-.9-.8-1.3-.3-.4-.6-.8-.8-1.2-.3-.4-.6-.7-.8-1.1-.3-.3-.5-.7-.8-.9-.5-.5-.9-1-1.2-1.3l-.5-.5c-.4-.3-.4-.9-.1-1.2.3-.4.9-.4 1.2-.1l.1.1s.2.2.5.6c.3.4.7.9 1.2 1.5.2.3.4.7.7 1.1.2.4.5.8.7 1.2.2.4.5.9.7 1.3.3.4.5.9.7 1.4.2.5.4.9.6 1.4.2.5.4.9.5 1.4.2.5.3.9.5 1.3s.2.8.4 1.2c.4 1.5.7 2.5.7 2.5s-.4-1.1-.9-2.5z"/></svg><svg viewBox="0 0 25 36" id="static--svg--drop"><path d="M9 19.6l-1.9-.7c0-.1 1.1-2.8 2.5-5.2 1.4-2.4 2.8-4.2 2.9-4.3l1.6 1.2s-1.4 1.8-2.7 4c-1.3 2.3-2.4 4.9-2.4 5zM12.6 3C3.9 12.8 2 19 2 22.5 2 30.7 5.1 34 12.6 34 18.8 34 23 32 23 22.5c0-7.1-7.2-16-10.4-19.5m0-3S25 12.6 25 22.5 20.7 36 12.6 36 0 32.4 0 22.5 12.7.1 12.6 0z"/></svg><svg viewBox="0 0 21.1 25.7" id="static--svg--exchange"><path d="M2 9.4v3H0v-3c0-2.8 2.2-5 5-5h10.3l-2.8-3L13.9 0 19 5.4l-5.1 5.4-1.5-1.4 2.8-3H5c-1.7 0-3 1.3-3 3zm17.1 3.9v3c0 1.7-1.3 3-3 3H5.8l2.8-3-1.5-1.4L2 20.3l5.1 5.4 1.5-1.4-2.8-3h10.3c2.8 0 5-2.2 5-5v-3h-2z"/></svg><svg viewBox="0 0 1024 1024" id="static--svg--facebook"><path class="awpath1" d="M928 0H96C43.2 0 0 43.2 0 96v832c0 52.8 43.2 96 96 96h416V576H384V448h128v-64c0-105.8 86.2-192 192-192h128v128H704c-35.2 0-64 28.8-64 64v64h192l-32 128H640v448h288c52.8 0 96-43.2 96-96V96c0-52.8-43.2-96-96-96z"/></svg><svg viewBox="0 0 10.643 22.805" id="static--svg--fb"><path d="M2.3 4.417v3.14H0v3.839h2.3v11.409h4.726V11.396h3.171s.297-1.841.441-3.854H7.044V4.917c0-.392.515-.92 1.024-.92h2.575V0h-3.5C2.184 0 2.3 3.843 2.3 4.417z"/></svg><svg viewBox="0 0 22 24" id="static--svg--gift"><path d="M20 4h-3.4c.1-.3.2-.6.2-1 0-1.7-1.3-3-3-3-1.2 0-2.2.7-2.7 1.7C10.6.7 9.6 0 8.4 0c-1.7 0-3 1.3-3 3 0 .4.1.7.2 1H2C.9 4 0 4.9 0 6v3c0 1.1.9 2 2 2v11c0 1.1.9 2 2 2h14c1.1 0 2-.9 2-2V11c1.1 0 2-.9 2-2V6c0-1.1-.9-2-2-2zm-6.2-2.2c.6 0 1.2.5 1.2 1.2 0 .4-.2.8-.6 1h-1.2c-.3-.2-.6-.6-.6-1 0-.7.5-1.2 1.2-1.2zM7.2 3c0-.7.5-1.2 1.2-1.2s1.2.5 1.2 1.2c0 .4-.2.8-.6 1H7.8c-.4-.2-.6-.6-.6-1zM2 6h8v3H2V6zm2 5h6v11H4V11zm14 11h-6V11h6v11zm2-13h-8V6h8v3z"/></svg><svg viewBox="0 0 20 20" id="static--svg--google"><path d="M1.989 5.589c0 1.494.499 2.572 1.482 3.205.806.52 1.74.598 2.226.598.118 0 .213-.006.279-.01 0 0-.154 1.004.59 1.996h-.034c-1.289 0-5.493.269-5.493 3.727 0 3.516 3.861 3.695 4.636 3.695.061 0 .097-.002.097-.002.008 0 .063.002.158.002.497 0 1.782-.062 2.975-.643 1.548-.75 2.333-2.059 2.333-3.885 0-1.764-1.196-2.814-2.069-3.582-.533-.469-.994-.873-.994-1.266 0-.4.337-.701.762-1.082.689-.615 1.339-1.492 1.339-3.15 0-1.457-.189-2.436-1.354-3.057.121-.062.551-.107.763-.137.631-.086 1.554-.184 1.554-.699V1.2H6.64c-.046.002-4.651.172-4.651 4.389zm7.424 9.013c.088 1.406-1.115 2.443-2.922 2.574-1.835.135-3.345-.691-3.433-2.096-.043-.676.254-1.336.835-1.863.589-.533 1.398-.863 2.278-.928.104-.006.207-.012.31-.012 1.699.001 2.849.999 2.932 2.325zM8.212 4.626c.451 1.588-.23 3.246-1.316 3.553a1.417 1.417 0 0 1-.384.052c-.994 0-1.979-1.006-2.345-2.393-.204-.776-.187-1.458.047-2.112.229-.645.643-1.078 1.163-1.225.125-.035.254-.053.385-.053 1.2 0 1.972.498 2.45 2.178zM16 8V5h-2v3h-3v2h3v3h2v-3h3V8h-3z"/></svg><svg viewBox="0 0 49.1 34.8" id="static--svg--hanger"><path d="M47.6 29.1L25.5 16.3l-.6-.3c0-1.8.2-1.9 1.9-2.4 2.7-.8 5.9-3.9 4.7-8.2-1.2-4-5-6.2-8.9-5.2-3.9 1.1-6.1 5.1-5.1 9l1.8-.5c-.8-3 .9-6 3.8-6.8 2.9-.8 5.8 1 6.6 3.9 1 3.4-1.9 5.5-3.5 5.9-2.8.9-3.2 1.6-3.2 4.1-.3.1-.5.2-.7.3l-20.8 13c-1.2.7-1.7 2.1-1.4 3.5.4 1.3 1.6 2.2 3 2.2h43c1.4 0 2.6-.9 3-2.3.3-1.3-.3-2.7-1.5-3.4zM46 32.8H3.1c-1.1 0-1.5-1.4-.6-2L23.4 18c.2-.1.4-.2.6-.2.2 0 .4 0 .5.1l22.1 12.8c.9.7.6 2.1-.6 2.1z"/></svg><svg viewBox="7.781 10.371 24 22.004" id="static--svg--heart"><path d="M25.181 12.371c2.579 0 4.6 2.018 4.6 4.595 0 3.636-3.802 7.088-9.557 12.314l-.044.04-.395.356-.417-.379c-5.898-5.345-9.752-8.836-9.583-12.567a4.56 4.56 0 0 1 1.318-2.984c2.144-2.157 5.431-1.594 7.155.429l.105.124c.743.872 2.09.872 2.834 0l.105-.124a5.166 5.166 0 0 1 3.879-1.804m0-2c-2.088 0-4.092.971-5.4 2.506-1.308-1.535-3.312-2.506-5.4-2.506-3.696 0-6.6 2.902-6.6 6.595 0 4.533 4.08 8.226 10.26 13.826l1.74 1.583 1.74-1.571c6.18-5.612 10.26-9.305 10.26-13.838 0-3.693-2.904-6.595-6.6-6.595z"/></svg><svg viewBox="0 1 24 22" id="static--svg--heart2"><path d="M12 21.35l-1.45-1.32C5.4 15.36 2 12.28 2 8.5 2 5.42 4.42 3 7.5 3c1.74 0 3.41.81 4.5 2.09C13.09 3.81 14.76 3 16.5 3 19.58 3 22 5.42 22 8.5c0 3.78-3.4 6.86-8.55 11.54L12 21.35z"/></svg><svg viewBox="0 0 46 31.8" id="static--svg--label"><path d="M46 0H0v2h9.5v25.3c0 2.2 1.6 4.5 5.1 4.5.6 0 1.2-.1 1.9-.2 1.4-.2 3.1-1.1 5.2-2.2 2.2-1.1 4.9-2.5 6.3-2.5 1.5 0 5 1.3 6.7 2.2l2.8 1.3V2H46V0zM35.5 27.3S30.5 25 28 25c-3.3 0-9.2 4.2-11.9 4.7-.6.1-1.1.1-1.5.1-2.5 0-3.1-1.4-3.1-2.5V2h24.1v25.3z"/><path d="M23.1 19.8c-.9 0-1.6-.4-2-.9-.4-.5-.7-1.2-.7-2l-2.4.5c.1 1.1.5 2.1 1.3 3 .8.9 1.9 1.6 3.7 1.6 2.9 0 5-2 5-5 0-1.8-.8-3.4-3.7-4.5l-1.6-.6c-1.5-.6-1.7-1.4-1.7-1.9 0-1 .7-1.9 2.2-1.9.7 0 1.2.2 1.7.6.4.3.6.6.7 1l1.9-1.1c-.3-.6-.8-1.2-1.2-1.6-.5-.4-1.4-1-3.1-1-2.9 0-4.6 2-4.6 4.1 0 2.3 1.9 3.4 3.2 3.9l1.5.6c1 .4 2.2 1.1 2.2 2.6.1 1.6-1 2.6-2.4 2.6z"/></svg><svg viewBox="0 0 21 19.2" id="static--svg--like"><path d="M10.5 19.3l-1.7-1.6C3.5 13 0 9.9 0 6 0 2.7 2.6.1 6 .1 7.7.1 9.3.8 10.5 2 11.7.8 13.3.1 15 .1c3.4 0 6 2.6 6 5.9 0 3.9-3.5 7-8.7 11.6l-1.8 1.7zM6 1.1C3.2 1.1 1 3.3 1 6c0 3.5 3.3 6.4 8.4 10.9l1.1 1 1.1-1C16.7 12.4 20 9.5 20 6c0-2.7-2.2-4.9-5-4.9-1.5 0-3.1.7-4.1 1.9l-.4.5-.4-.5C9.1 1.8 7.5 1.1 6 1.1z"/></svg><svg viewBox="0 0 21 19.2" id="static--svg--like-filled"><path d="M15 .1c-1.7 0-3.3.7-4.5 1.9C9.3.8 7.7.1 6 .1 2.6.1 0 2.7 0 6c0 3.9 3.5 7 8.8 11.7l1.7 1.6 1.8-1.6C17.5 13 21 9.9 21 6c0-3.3-2.6-5.9-6-5.9z"/></svg><svg viewBox="0 0 1024 1024" id="static--svg--location"><path class="bgpath1" d="M512 0C335.268 0 192 143.268 192 320c0 320 320 704 320 704s320-384 320-704C832 143.268 688.73 0 512 0zm0 516c-108.248 0-196-87.752-196-196s87.752-196 196-196 196 87.752 196 196-87.752 196-196 196zM388 320c0-68.483 55.517-124 124-124s124 55.517 124 124-55.517 124-124 124-124-55.517-124-124z"/></svg><svg viewBox="11.509 12.217 19.463 20.47" id="static--svg--magnifier"><path d="M24.425 26.009l-.746-.729c.555-1.124 1.26-2.244 1.26-3.901a6.688 6.688 0 1 0-13.376 0 6.688 6.688 0 0 0 6.688 6.688 6.65 6.65 0 0 0 3.837-1.214c.658.658 5.938 5.834 5.938 5.834l1.533-1.533-5.134-5.145z" opacity=".25"/><ellipse fill="#FFF" cx="18.865" cy="19.729" rx="4.51" ry="4.25"/><path d="M22.732 25.609v-.436a6.827 6.827 0 0 1-3.887 1.217c-3.77 0-6.837-3.067-6.837-6.837s3.067-6.837 6.837-6.837 6.837 3.067 6.837 6.837a6.825 6.825 0 0 1-1.217 3.887h.436l5.365 5.374-2.16 2.16-5.374-5.365zm-3.886-9.942c-2.144 0-3.887 1.743-3.887 3.887s1.743 3.887 3.887 3.887 3.887-1.743 3.887-3.887-1.744-3.887-3.887-3.887z"/><path fill="#FFF" d="M18.846 13.217c3.5 0 6.337 2.837 6.337 6.337a6.309 6.309 0 0 1-1.531 4.124l.273.263h.77l4.865 4.874-1.453 1.452-4.874-4.865v-.77l-.263-.273a6.31 6.31 0 0 1-4.124 1.531 6.337 6.337 0 1 1 0-12.673m0 10.724c2.427 0 4.387-1.959 4.387-4.387s-1.959-4.387-4.387-4.387c-2.427 0-4.387 1.959-4.387 4.387s1.959 4.387 4.387 4.387m0-11.724c-4.045 0-7.337 3.291-7.337 7.337s3.291 7.337 7.337 7.337a7.322 7.322 0 0 0 3.544-.916l.136.136 4.874 4.865.707.706.706-.706 1.453-1.452.706-.706-.706-.707-4.865-4.874-.136-.136a7.322 7.322 0 0 0 .916-3.544c.001-4.049-3.29-7.34-7.335-7.34zm0 10.724c-1.868 0-3.387-1.519-3.387-3.387s1.519-3.387 3.387-3.387a3.391 3.391 0 0 1 3.387 3.387 3.392 3.392 0 0 1-3.387 3.387z"/><path d="M18.701 16.912a.5.5 0 0 1 .5.5v4a.5.5 0 0 1-1 0v-4a.5.5 0 0 1 .5-.5z"/><g><path d="M16.701 18.912h4a.5.5 0 0 1 0 1h-4a.5.5 0 0 1 0-1z"/></g></svg><svg viewBox="0 0 300 180" id="static--svg--mastercard"><path d="M298.032 90.5c.014 48.936-39.646 88.614-88.582 88.627-48.937.012-88.614-39.646-88.627-88.582V90.5c-.013-48.935 39.647-88.615 88.581-88.628 48.937-.013 88.615 39.647 88.628 88.583v.045z" fill="#f90"/><path d="M90.001 1.895C41.355 2.204 1.967 41.781 1.967 90.5c0 48.909 39.695 88.604 88.605 88.604 22.955 0 43.879-8.748 59.624-23.086l-.007-.004h.019a89.437 89.437 0 0 0 8.995-9.488H141.05a86.536 86.536 0 0 1-6.606-9.127h31.308a88.75 88.75 0 0 0 5.158-9.488h-41.635a87.392 87.392 0 0 1-3.703-9.309h49.045a88.388 88.388 0 0 0 4.56-28.103c0-6.512-.706-12.861-2.042-18.974h-54.164a88.347 88.347 0 0 1 2.528-9.308h49.063a88.618 88.618 0 0 0-3.82-9.487H129.27a85.013 85.013 0 0 1 5.084-9.307h31.285a88.798 88.798 0 0 0-6.877-9.488h-17.443a82.232 82.232 0 0 1 8.889-8.95c-15.746-14.34-36.676-23.09-59.636-23.09h-.571z" fill="#c00"/><path d="M289.143 136.82c.482 0 .951.125 1.409.371.46.246.814.601 1.07 1.062.256.456.384.937.384 1.435 0 .492-.127.968-.379 1.424-.251.455-.605.81-1.061 1.063-.451.249-.928.375-1.424.375s-.972-.126-1.426-.375a2.71 2.71 0 0 1-1.063-1.063 2.908 2.908 0 0 1-.377-1.424c0-.498.127-.979.384-1.435a2.663 2.663 0 0 1 1.071-1.062 2.97 2.97 0 0 1 1.412-.371m0 .475c-.401 0-.793.104-1.176.311-.38.207-.677.5-.891.888a2.378 2.378 0 0 0-.325 1.194c0 .412.106.81.315 1.188.214.377.51.673.888.885.381.211.776.315 1.188.315.414 0 .81-.104 1.189-.315.378-.212.673-.508.884-.885a2.392 2.392 0 0 0-.008-2.382 2.179 2.179 0 0 0-.894-.888 2.402 2.402 0 0 0-1.17-.311m-1.256 3.975v-3.082h1.062c.36 0 .622.028.784.088a.758.758 0 0 1 .388.297.813.813 0 0 1-.098 1.039.949.949 0 0 1-.639.281.896.896 0 0 1 .264.164c.125.12.275.323.455.61l.375.603h-.606l-.272-.485c-.215-.382-.388-.62-.521-.718-.091-.069-.224-.105-.397-.105h-.293v1.311h-.5m.496-1.738h.604c.288 0 .483-.044.588-.129a.421.421 0 0 0 .159-.342.404.404 0 0 0-.075-.244.466.466 0 0 0-.213-.162c-.089-.035-.255-.055-.497-.055h-.564v.932" fill="#fcb340"/><g><g transform="translate(-13.744 15.994)"><path d="M133.719 99.926l1.18-8.02c-.645 0-1.593.279-2.431.279-3.284 0-3.694-1.755-3.436-3.037l3.236-16.13h4.992l1.029-9.103h-4.705l.958-5.516H124.7c-.208.208-5.568 31.022-5.568 34.776 0 5.555 3.118 8.027 7.516 7.988 3.442-.029 6.125-.982 7.071-1.237zM136.706 84.638c0 13.332 8.799 16.499 16.297 16.499 6.921 0 10.55-1.604 10.55-1.604l1.662-9.1s-5.848 2.378-10.601 2.378c-10.131 0-8.355-7.554-8.355-7.554l19.463.059s1.239-6.111 1.239-8.602c0-6.217-3.387-13.849-13.745-13.849-9.486.002-16.51 10.223-16.51 21.773zm16.546-13.325c5.324 0 4.342 5.984 4.342 6.469H147.12c0-.62.989-6.469 6.132-6.469zM212.99 99.923l1.689-10.284s-4.632 2.321-7.807 2.321c-6.693 0-9.378-5.11-9.378-10.601 0-11.137 5.758-17.265 12.168-17.265 4.808 0 8.665 2.699 8.665 2.699l1.54-9.993s-4.554-3.289-9.456-3.308c-14.745-.058-23.182 10.208-23.182 27.955 0 11.763 6.248 19.768 17.506 19.768 3.183 0 8.255-1.292 8.255-1.292zM81.83 63.012c-6.469 0-11.427 2.079-11.427 2.079l-1.37 8.127s4.093-1.663 10.281-1.663c3.513 0 6.083.395 6.083 3.25 0 1.734-.314 2.374-.314 2.374s-2.772-.231-4.056-.231c-9.21 0-16.729 3.482-16.729 13.98 0 8.273 5.623 10.17 9.108 10.17 6.657 0 9.292-4.203 9.444-4.215l-.077 3.488h8.307l3.706-25.98c0-11.025-9.616-11.379-12.956-11.379zm1.438 21.096c.181 1.586-.41 9.086-6.092 9.086-2.93 0-3.691-2.24-3.691-3.562 0-2.584 1.403-5.683 8.315-5.683 1.61 0 1.197.116 1.468.159zM103.615 100.906c2.125 0 14.272.541 14.272-11.994 0-11.721-11.244-9.404-11.244-14.114 0-2.342 1.833-3.08 5.184-3.08 1.329 0 6.447.423 6.447.423l1.189-8.33c0 .001-3.312-.741-8.704-.741-6.979 0-14.063 2.786-14.063 12.318 0 10.802 11.812 9.717 11.812 14.267 0 3.037-3.3 3.287-5.844 3.287-4.401 0-8.363-1.511-8.377-1.438l-1.259 8.245c.229.07 2.674 1.157 10.587 1.157zM290.807 55.455l-1.705 12.709s-3.553-4.905-9.112-4.905c-10.459 0-15.849 10.423-15.849 22.396 0 7.73 3.844 15.307 11.699 15.307 5.651 0 8.784-3.941 8.784-3.941l-.415 3.365h9.178l7.207-44.862-9.787-.069zm-4.052 24.701c0 4.983-2.468 11.64-7.581 11.64-3.396 0-4.988-2.851-4.988-7.324 0-7.315 3.285-12.14 7.432-12.14 3.394 0 5.137 2.33 5.137 7.824zM30.749 100.423l5.743-33.87.844 33.87h6.499l12.125-33.87-5.371 33.87h9.658l7.437-44.922-15.342-.117-9.126 27.504-.25-27.387h-14.06l-7.544 44.922h9.387z" fill="#006"/><path d="M176.101 100.487c2.746-15.615 3.724-27.947 11.732-25.393 1.15-6.044 3.891-11.3 5.143-13.858 0 0-.396-.589-2.871-.589-4.225 0-9.866 8.574-9.866 8.574l.843-5.301h-8.786l-5.884 36.566h9.689zM232.75 63.012c-6.472 0-11.43 2.079-11.43 2.079l-1.369 8.127s4.095-1.663 10.28-1.663c3.514 0 6.083.395 6.083 3.25 0 1.734-.313 2.374-.313 2.374s-2.77-.231-4.055-.231c-9.21 0-16.729 3.482-16.729 13.98 0 8.273 5.622 10.17 9.107 10.17 6.655 0 9.292-4.203 9.443-4.215l-.078 3.488H242l3.704-25.98c.001-11.025-9.615-11.379-12.953-11.379zm1.436 21.096c.18 1.586-.41 9.086-6.092 9.086-2.932 0-3.692-2.24-3.692-3.562 0-2.584 1.402-5.683 8.315-5.683 1.611 0 1.2.116 1.47.159zM255.266 100.487c1.508-11.488 4.299-27.616 11.731-25.393 1.149-6.044.041-6.028-2.433-6.028-4.228 0-5.164.154-5.164.154l.844-5.301h-8.785l-5.884 36.567h9.691v.001z" fill="#006"/></g><path d="M122.434 113.059l1.181-8.019c-.645 0-1.594.276-2.431.276-3.284 0-3.646-1.746-3.437-3.037l2.653-16.362h4.991l1.205-8.87h-4.706l.958-5.516h-9.434c-.208.208-5.569 31.023-5.569 34.775 0 5.555 3.119 8.029 7.517 7.989 3.444-.029 6.126-.982 7.072-1.236zM125.423 97.77c0 13.332 8.8 16.5 16.297 16.5 6.92 0 9.965-1.547 9.965-1.547l1.662-9.099s-5.264 2.319-10.018 2.319c-10.13 0-8.356-7.553-8.356-7.553h19.172s1.238-6.113 1.238-8.604c0-6.216-3.094-13.79-13.452-13.79-9.486.002-16.508 10.223-16.508 21.774zm16.544-13.325c5.324 0 4.342 5.983 4.342 6.467h-10.474c0-.618.99-6.467 6.132-6.467zM201.707 113.055l1.688-10.285s-4.629 2.321-7.806 2.321c-6.692 0-9.376-5.11-9.376-10.6 0-11.137 5.758-17.264 12.168-17.264 4.807 0 8.665 2.699 8.665 2.699l1.54-9.993s-5.721-2.315-10.625-2.315c-10.891 0-21.486 9.448-21.486 27.192 0 11.766 5.721 19.537 16.979 19.537 3.183.001 8.253-1.292 8.253-1.292zM70.547 76.143c-6.469 0-11.428 2.079-11.428 2.079l-1.369 8.127s4.093-1.663 10.28-1.663c3.513 0 6.083.395 6.083 3.25 0 1.734-.315 2.374-.315 2.374s-2.771-.232-4.054-.232c-8.159 0-16.73 3.482-16.73 13.98 0 8.272 5.623 10.17 9.108 10.17 6.656 0 9.525-4.319 9.678-4.332l-.311 3.605h8.307l3.706-25.981c0-11.022-9.615-11.377-12.955-11.377zm2.021 21.154c.18 1.587-.995 9.026-6.675 9.026-2.93 0-3.692-2.238-3.692-3.562 0-2.582 1.403-5.682 8.316-5.682 1.608.002 1.78.174 2.051.218zM92.331 114.038c2.125 0 14.273.54 14.273-11.995 0-11.719-11.245-9.404-11.245-14.112 0-2.344 1.833-3.082 5.183-3.082 1.33 0 6.447.423 6.447.423l1.19-8.33c0 .001-3.312-.741-8.704-.741-6.979 0-14.063 2.786-14.063 12.318 0 10.801 11.812 9.717 11.812 14.267 0 3.037-3.3 3.284-5.843 3.284-4.401 0-8.364-1.51-8.378-1.438l-1.258 8.246c.228.07 2.672 1.16 10.586 1.16zM279.852 68.668l-2.035 12.627s-3.551-4.905-9.11-4.905c-8.644 0-15.849 10.422-15.849 22.397 0 7.73 3.843 15.304 11.699 15.304 5.651 0 8.784-3.94 8.784-3.94l-.415 3.365h9.176l7.207-44.863-9.457.015zm-4.381 24.62c0 4.983-2.467 11.639-7.582 11.639-3.395 0-4.986-2.85-4.986-7.323 0-7.314 3.285-12.14 7.43-12.14 3.396-.001 5.138 2.332 5.138 7.824zM19.466 113.555l5.743-33.87.843 33.87h6.5l12.125-33.87-5.371 33.87h9.658l7.438-44.923H41.467l-9.301 27.563-.484-27.563H17.915l-7.545 44.923h9.096zM164.818 113.617c2.746-15.616 3.255-28.296 9.808-25.975 1.147-6.044 2.254-8.382 3.506-10.94 0 0-.587-.123-1.819-.123-4.225 0-7.355 5.772-7.355 5.772l.841-5.301h-8.784l-5.885 36.567h9.688zM223.475 76.143c-6.469 0-11.428 2.079-11.428 2.079l-1.368 8.127s4.093-1.663 10.28-1.663c3.513 0 6.081.395 6.081 3.25 0 1.734-.313 2.374-.313 2.374s-2.77-.232-4.055-.232c-8.158 0-16.729 3.482-16.729 13.98 0 8.272 5.622 10.17 9.107 10.17 6.656 0 9.525-4.319 9.677-4.332l-.309 3.605h8.307l3.705-25.981c.001-11.022-9.615-11.377-12.955-11.377zm2.024 21.154c.18 1.587-.996 9.026-6.678 9.026-2.93 0-3.69-2.238-3.69-3.562 0-2.582 1.403-5.682 8.315-5.682 1.608.002 1.78.174 2.053.218zM244.023 113.617c2.747-15.616 3.256-28.296 9.807-25.975 1.149-6.044 2.257-8.382 3.508-10.94 0 0-.587-.123-1.82-.123-4.224 0-7.354 5.772-7.354 5.772l.84-5.301h-8.783l-5.885 36.567h9.687zM289.105 107.975c.479 0 .951.123 1.406.373.459.242.816.598 1.072 1.059.257.458.383.935.383 1.434 0 .493-.126.969-.379 1.424a2.655 2.655 0 0 1-1.059 1.063c-.454.25-.93.376-1.424.376-.498 0-.974-.126-1.429-.376a2.678 2.678 0 0 1-1.058-1.063 2.865 2.865 0 0 1-.381-1.424c0-.499.127-.976.384-1.434a2.63 2.63 0 0 1 1.073-1.059c.461-.25.933-.373 1.412-.373m0 .472c-.401 0-.793.104-1.176.313a2.183 2.183 0 0 0-.894.885c-.214.381-.322.78-.322 1.194s.104.81.313 1.188c.213.377.509.673.891.886.378.208.773.313 1.188.313.412 0 .81-.105 1.188-.313.378-.213.674-.509.884-.886.211-.381.314-.774.314-1.188s-.107-.813-.321-1.194a2.16 2.16 0 0 0-.894-.885 2.408 2.408 0 0 0-1.171-.313m-1.255 3.976v-3.083h1.061c.361 0 .625.029.785.088a.756.756 0 0 1 .388.297.784.784 0 0 1 .146.451.817.817 0 0 1-.244.588.934.934 0 0 1-.637.28.946.946 0 0 1 .262.163c.123.122.275.326.455.611l.377.604h-.609l-.271-.485c-.216-.383-.389-.621-.521-.718-.091-.071-.224-.106-.399-.106h-.291v1.311l-.502-.001m.498-1.735h.604c.289 0 .484-.043.588-.129a.418.418 0 0 0 .16-.342.404.404 0 0 0-.075-.242.458.458 0 0 0-.213-.164c-.091-.035-.254-.053-.498-.053h-.565v.93" fill="#fff"/></g></svg><svg viewBox="0 0 15 14" id="static--svg--menu"><path d="M0 14h15v-2H0v2zm0-6h15V6H0v2zm0-8v2h15V0H0z"/></svg><svg viewBox="0 0 612 612" id="static--svg--message-error"><path d="M420.501 218.79c-.286-6.942-2.868-13.827-8.186-19.125-5.297-5.298-12.183-7.898-19.125-8.186-7.726-.325-15.548 2.276-21.438 8.186L306 265.436l-65.752-65.771c-5.909-5.91-13.712-8.492-21.439-8.186-6.942.287-13.827 2.869-19.125 8.186-5.297 5.298-7.898 12.183-8.186 19.125-.325 7.727 2.276 15.529 8.186 21.439L265.436 306l-65.752 65.752c-5.91 5.909-8.492 13.713-8.186 21.438.287 6.942 2.869 13.828 8.186 19.125 5.298 5.298 12.183 7.899 19.125 8.186 7.727.325 15.53-2.275 21.439-8.186L306 346.564l65.771 65.771c5.91 5.909 13.713 8.491 21.439 8.186 6.942-.287 13.827-2.869 19.125-8.186 5.298-5.298 7.898-12.183 8.186-19.125.325-7.727-2.276-15.529-8.186-21.439L346.564 306l65.751-65.752c5.911-5.909 8.511-13.712 8.186-21.458zM306 0C137.012 0 0 137.012 0 306s137.012 306 306 306 306-137.012 306-306S474.988 0 306 0zm0 554.625C168.912 554.625 57.375 443.088 57.375 306S168.912 57.375 306 57.375 554.625 168.912 554.625 306 443.088 554.625 306 554.625z"/></svg><svg viewBox="0 0 612 612" id="static--svg--message-info"><path d="M306 153c-21.114 0-38.25 17.136-38.25 38.25S284.886 229.5 306 229.5s38.25-17.117 38.25-38.25S327.133 153 306 153zm0 114.75c-21.114 0-38.25 17.117-38.25 38.25v114.75c0 21.114 17.136 38.25 38.25 38.25s38.25-17.136 38.25-38.25V306c0-21.114-17.117-38.25-38.25-38.25zM306 0C137.279 0 0 137.279 0 306s137.279 306 306 306 306-137.279 306-306S474.721 0 306 0zm0 554.625C168.893 554.625 57.375 443.088 57.375 306S168.893 57.375 306 57.375c137.088 0 248.625 111.537 248.625 248.625S443.088 554.625 306 554.625z"/></svg><svg viewBox="0 0 612 612" id="static--svg--message-success"><path d="M306 0C137.012 0 0 137.012 0 306s137.012 306 306 306 306-137.012 306-306S474.988 0 306 0zm0 554.625C168.912 554.625 57.375 443.088 57.375 306S168.912 57.375 306 57.375 554.625 168.912 554.625 306 443.088 554.625 306 554.625zm125.46-344.021c-7.707-.325-15.529 2.276-21.42 8.186L277.312 351.498l-75.353-75.333c-5.891-5.91-13.712-8.492-21.42-8.186-6.942.287-13.847 2.869-19.144 8.186-5.298 5.298-7.899 12.202-8.186 19.144-.325 7.708 2.276 15.53 8.186 21.42l95.625 95.625c5.604 5.604 12.948 8.396 20.292 8.396s14.688-2.792 20.292-8.396l153-153c5.909-5.91 8.491-13.712 8.186-21.42-.287-6.942-2.869-13.846-8.186-19.144-5.317-5.317-12.202-7.918-19.144-8.186z"/></svg><svg viewBox="0 0 612 612" id="static--svg--message-warning"><path d="M605.217 501.568l-255-442C341.394 44.302 324.887 34 306 34s-35.394 10.302-44.217 25.568l-255 442A50.882 50.882 0 0 0 0 527c0 28.152 22.848 51 51 51h510c28.152 0 51-22.848 51-51 0-9.265-2.465-17.952-6.783-25.432zM50.966 527.051L305.949 85H306l.034.051L561 527l-510.034.051zM306 408c-18.768 0-34 15.232-34 34 0 18.785 15.215 34 34 34s34-15.232 34-34-15.215-34-34-34zm-34-153c0 1.938.17 3.859.476 5.712l16.745 99.145C290.598 367.897 297.585 374 306 374s15.402-6.103 16.762-14.144l16.745-99.145c.323-1.852.493-3.773.493-5.711 0-18.768-15.215-34-34-34-18.768 0-34 15.232-34 34z"/></svg><svg viewBox="10.148 8.873 25.001 25.001" id="static--svg--messages"><path d="M18.148 18.873h3v2h-3v-2zM23.148 18.873h3v2h-3v-2z"/><path d="M25.148 10.873a8 8 0 0 1 8 8v1a8 8 0 0 1-8 8H21.96c-2.438 2.202-7.812 4-7.812 4s2.396-2.4 3.477-4.412a7.998 7.998 0 0 1-5.477-7.588v-1a8 8 0 0 1 8-8h5m0-2h-5c-5.514 0-10 4.486-10 10v1a9.98 9.98 0 0 0 4.535 8.373 28.135 28.135 0 0 1-1.951 2.215 2 2 0 0 0 2.051 3.31c.548-.183 5.108-1.746 7.898-3.897h2.468c5.514 0 10-4.486 10-10v-1c-.001-5.515-4.487-10.001-10.001-10.001z"/></svg><svg viewBox="11.587 18.182 11.275 10.25" id="static--svg--negative"><path d="M11.587 24.332h2.05v-6.15h-2.05v6.15zm11.27-.554l.005-.005v-.979c0-.133-.026-.256-.072-.374l-1.548-3.613a1.019 1.019 0 0 0-.943-.625h-4.612c-.564 0-1.025.461-1.025 1.025v5.125c0 .282.113.538.302.723l3.372 3.377.543-.538a.772.772 0 0 0 .226-.543l-.015-.164-.487-2.342h3.234c.564 0 1.025-.461 1.025-1.025l-.005-.042z"/></svg><svg viewBox="0 0 487.958 487.958" id="static--svg--next"><path d="M483.058 215.613l-215.5-177.6c-4-3.3-9.6-4-14.3-1.8-4.7 2.2-7.7 7-7.7 12.2v93.6c-104.6 3.8-176.5 40.7-213.9 109.8-32.2 59.6-31.9 130.2-31.6 176.9v10.8c0 6.1 4.1 11.5 10.1 13.1 1.1.3 2.3.4 3.4.4 4.8 0 9.3-2.5 11.7-6.8 73-128.7 133.1-134.9 220.2-135.2v93.3c0 5.2 3 10 7.8 12.2s10.3 1.5 14.4-1.8l215.4-178.2c3.1-2.6 4.9-6.4 4.9-10.4s-1.8-7.9-4.9-10.5zm-210.5 160v-78.1c0-3.6-1.4-7-4-9.5-2.5-2.5-6-4-9.5-4-54.4 0-96.1 1.5-136.6 20.4-35 16.3-65.3 44-95.2 87.5 1.2-39.7 6.4-87.1 28.1-127.2 34.4-63.6 101-95.1 203.7-96 7.4-.1 13.4-6.1 13.4-13.5v-78.2l180.7 149.1-180.6 149.5z"/></svg><svg viewBox="0 0 20 28" id="static--svg--odnoklassniki"><path d="M10 14.172c-3.906 0-7.094-3.172-7.094-7.078C2.906 3.172 6.093 0 10 0s7.094 3.172 7.094 7.094c0 3.906-3.187 7.078-7.094 7.078zm0-10.578a3.49 3.49 0 0 0-3.484 3.5c0 1.922 1.563 3.484 3.484 3.484s3.484-1.563 3.484-3.484c0-1.937-1.563-3.5-3.484-3.5zm8.172 11.437c.688 1.406-.094 2.078-1.875 3.234-1.5.953-3.563 1.328-4.922 1.469l1.141 1.125 4.172 4.172c.625.641.625 1.672 0 2.297l-.187.203a1.66 1.66 0 0 1-2.312 0 956.276 956.276 0 0 0-4.172-4.188l-4.172 4.188c-.641.625-1.672.625-2.297 0l-.187-.203a1.612 1.612 0 0 1 0-2.297c1.062-1.062 2.578-2.594 4.172-4.172l1.125-1.125c-1.344-.141-3.437-.5-4.953-1.469-1.781-1.156-2.562-1.828-1.875-3.234.406-.797 1.516-1.469 2.984-.313 0 0 1.984 1.578 5.187 1.578s5.187-1.578 5.187-1.578c1.469-1.156 2.578-.484 2.984.313z"/></svg><svg viewBox="0 0 612 612" id="static--svg--online-shop"><path d="M457.008 392.441c0-5.279 4.283-9.563 9.563-9.563 5.279 0 9.562 4.283 9.562 9.563v37.055c0 5.279-4.283 9.563-9.562 9.563H318.352c-5.278 0-9.562-4.283-9.562-9.563v-74.09c0-5.279 4.283-9.562 9.562-9.562h148.199c5.279 0 9.563 4.282 9.563 9.562s-4.283 9.563-9.563 9.563H327.895v54.965h129.073v-27.492l.04-.001z"/><path d="M155.012 528.328c0 5.279-4.283 9.563-9.563 9.563s-9.563-4.283-9.563-9.563V332.875c0-5.278 4.283-9.562 9.563-9.562h98.793c5.279 0 9.563 4.303 9.563 9.562v185.89H543.45V292.274c0-5.279 4.283-9.563 9.562-9.563 5.28 0 9.563 4.283 9.563 9.563V528.328c0 5.279-4.283 9.563-9.563 9.563H244.243c-5.279 0-9.563-4.283-9.563-9.563V342.437h-79.667v185.891h-.001zM49.406 292.274c0-5.279 4.283-9.563 9.563-9.563s9.563 4.283 9.563 9.563v226.472H102.2c5.279 0 9.563 4.283 9.563 9.563s-4.283 9.562-9.563 9.562H58.989c-5.279 0-9.563-4.282-9.563-9.562V292.274h-.02zM17.292 225.137c-3.088 4.263-9.064 5.2-13.328 2.131-4.263-3.088-5.2-9.064-2.131-13.328l98.813-135.867a9.533 9.533 0 0 1 7.729-3.924v-.04h395.25c3.387 0 6.335 1.753 8.049 4.403l98.493 135.429c3.088 4.263 2.132 10.24-2.132 13.328-4.264 3.088-10.239 2.132-13.327-2.131L498.784 93.235H113.216L17.292 225.137zM511.674 78.512l1.514 5.16a9.552 9.552 0 0 0-1.514-5.16z"/><path d="M592.875 219.539c0-5.279 4.283-9.563 9.562-9.563 5.28 0 9.562 4.283 9.562 9.563 0 12.87-5.239 24.544-13.646 32.971-8.427 8.427-20.102 13.646-32.971 13.646s-24.544-5.22-32.971-13.646c-8.427-8.426-13.646-20.101-13.646-32.971 0-5.279 4.304-9.563 9.563-9.563 5.279 0 9.562 4.283 9.562 9.563 0 7.59 3.089 14.463 8.05 19.444 4.979 4.96 11.854 8.048 19.442 8.048s14.463-3.088 19.443-8.048c4.962-4.981 8.05-11.854 8.05-19.444zM133.078 142.64c-5.279 0-9.563-4.283-9.563-9.563s4.283-9.562 9.563-9.562h345.844c5.279 0 9.563 4.283 9.563 9.562 0 5.28-4.283 9.563-9.563 9.563H133.078z"/><path d="M444.656 219.539c0-5.279 4.283-9.563 9.562-9.563 5.28 0 9.563 4.283 9.563 9.563 0 7.59 3.088 14.463 8.049 19.444l.478.518c4.922 4.662 11.596 7.53 18.967 7.53 7.59 0 14.463-3.088 19.442-8.048a27.404 27.404 0 0 0 8.049-19.444c0-5.279 4.304-9.563 9.563-9.563 5.279 0 9.562 4.283 9.562 9.563 0 12.87-5.238 24.544-13.646 32.971-8.427 8.427-20.103 13.646-32.971 13.646-12.531 0-23.906-4.96-32.293-13.049l-.658-.598c-8.447-8.426-13.667-20.101-13.667-32.97zM296.438 219.539c0-5.279 4.283-9.563 9.563-9.563s9.563 4.283 9.563 9.563c0 7.59 3.088 14.463 8.049 19.444 4.979 4.96 11.854 8.048 19.442 8.048s14.463-3.088 19.443-8.048c4.961-4.98 8.049-11.854 8.049-19.444 0-5.279 4.283-9.563 9.563-9.563 5.279 0 9.562 4.283 9.562 9.563 0 12.87-5.239 24.544-13.646 32.971-8.428 8.427-20.103 13.646-32.972 13.646s-24.544-5.22-32.971-13.646c-8.424-8.426-13.645-20.102-13.645-32.971z"/><path d="M444.656 219.539c0-5.279 4.283-9.563 9.562-9.563 5.28 0 9.563 4.283 9.563 9.563 0 12.87-5.239 24.544-13.646 32.971-8.427 8.427-20.102 13.646-32.971 13.646s-24.544-5.22-32.971-13.646a46.504 46.504 0 0 1-13.646-32.971c0-5.279 4.283-9.563 9.563-9.563 5.279 0 9.562 4.283 9.562 9.563 0 7.59 3.088 14.463 8.049 19.444 4.98 4.96 11.854 8.048 19.443 8.048s14.463-3.088 19.443-8.048c4.961-4.981 8.049-11.854 8.049-19.444zM296.438 219.539c0-5.279 4.283-9.563 9.563-9.563s9.563 4.283 9.563 9.563c0 12.87-5.221 24.544-13.646 32.971l-.657.598c-8.407 8.088-19.803 13.049-32.313 13.049-12.87 0-24.544-5.22-32.971-13.646-8.427-8.426-13.646-20.101-13.646-32.971 0-5.279 4.283-9.563 9.563-9.563s9.563 4.283 9.563 9.563c0 7.59 3.088 14.463 8.048 19.444 4.98 4.96 11.854 8.048 19.444 8.048 7.371 0 14.045-2.869 18.946-7.53l.478-.518c4.977-4.982 8.065-11.855 8.065-19.445z"/><path d="M148.219 219.539c0-5.279 4.283-9.563 9.563-9.563s9.563 4.283 9.563 9.563c0 7.59 3.088 14.463 8.048 19.444 4.98 4.96 11.854 8.048 19.444 8.048s14.463-3.088 19.444-8.048c4.96-4.98 8.048-11.854 8.048-19.444 0-5.279 4.283-9.563 9.563-9.563s9.563 4.283 9.563 9.563c0 12.87-5.22 24.544-13.646 32.971-8.426 8.427-20.101 13.646-32.971 13.646s-24.544-5.22-32.971-13.646c-8.427-8.426-13.648-20.102-13.648-32.971z"/><path d="M148.219 219.539c0-5.279 4.283-9.563 9.563-9.563s9.563 4.283 9.563 9.563c0 12.87-5.22 24.544-13.646 32.971-8.426 8.427-20.101 13.646-32.971 13.646-12.85 0-24.484-5.22-32.931-13.687l-.02.04c-8.427-8.427-13.667-20.101-13.667-32.971 0-5.279 4.283-9.563 9.563-9.563s9.563 4.283 9.563 9.563c0 7.59 3.088 14.463 8.048 19.444v.02l.02.02c4.94 4.941 11.813 8.009 19.424 8.009 7.59 0 14.463-3.088 19.444-8.048 4.959-4.981 8.047-11.854 8.047-19.444z"/><path d="M0 219.539c0-5.279 4.283-9.563 9.563-9.563s9.563 4.283 9.563 9.563c0 7.59 3.088 14.463 8.048 19.444 4.98 4.96 11.854 8.048 19.444 8.048s14.463-3.088 19.444-8.048c4.96-4.98 8.048-11.854 8.048-19.444 0-5.279 4.283-9.563 9.563-9.563s9.563 4.283 9.563 9.563c0 12.87-5.22 24.544-13.646 32.971-8.426 8.427-20.081 13.646-32.971 13.646-12.89 0-24.544-5.22-32.971-13.646C5.221 244.084 0 232.408 0 219.539z"/></svg><svg viewBox="0 0 27.7 45.1" id="static--svg--outerwears"><path d="M23.7 29.9l4-1.9-.9 5h-3.1zM13 6.9c.2.2 1 .7 1.9-.1C17.7 4.2 18.2.2 18.2 0c-1 .5-2.6.8-4.4.8S10.6.5 9.5 0c.1.2.6 4.4 3.5 6.9z"/><path d="M26 6C25.2 3.1 21.3.5 20.5.1L23 4.4h-4.1l2.8 5.7h-5.9L17 13v2h-2v-2h1.7l-1.8-2.9H6.2L9 4.4H4.9L7.3 0c-.7.5-4.6 3-5.5 6 0 0-.9 2.5-.9 8.2v14.3L0 28l.9 5H4v12.1H23.8V32.4c-.7-4.5-2.4-9.1-2.9-10.7h-14c-.5 1.6-2.2 6.2-2.9 10.7v-2.5l1.4-16.8s.6 6.1.8 6.4c.1.1.1.2.2.3h14.9c.1-.1.2-.3.2-.3.3-.3.8-6.4.8-6.4l1.4 16.8 3.1-1.3V14.1C26.9 8.5 26 6 26 6zm-5.2 23.1v.1l.6 15.9h-1.8l.6-15.9-2.5-7.3 3.1 7.2zM12.9 19h-2v-2h2v2zm0-3.9h-2v-2h2v2zM17 19h-2v-2h2v2z"/></svg><svg viewBox="0 0 18.8 53.6" id="static--svg--pants"><path d="M14.4 3.6c.1.5.3 1.3 1.1 2s1.9 1 3.4.8v-1c0-1.2-.2-2.2-.5-3.1-1.2.6-2.6 1-4 1.3zM.9 1.4c2.3 1.1 5.4 1.8 8.5 1.8s6.2-.6 8.5-1.8h.1L17.3 0c-2.1.7-4.8 1.2-7.8 1.2h-.2C7.4 1.2 5.7 1 4.2.7 3.2.5 2.3.3 1.6 0c0 0 0 .1-.1.1-.2.3-.4.7-.6 1.3zm7.9.2H10v1.3H8.8V1.6z"/><path d="M18.1 7.4c-1.4 0-2.5-.4-3.3-1.1-.9-.8-1.3-1.9-1.4-2.5-.9.2-1.9.2-2.9.3v5.6h-.7v.7H8.3V4.6H9v-.5c-1.2 0-2.5-.1-3.6-.3-.2.6-.5 1.7-1.4 2.5C3.2 7 2.1 7.4.7 7.4H.1c.2 5 .7 15.4.8 17.7l.5 28.5h5L9 11.4l-.1.1v-.1h.9v.1l-.1-.1 2.7 42.2h5l.6-28.5c.1-2.3.6-12.7.8-17.7h-.7z"/><path d="M3.3 5.6c.7-.6 1-1.5 1.1-2C3 3.3 1.7 2.8.5 2.3c-.3.9-.5 1.9-.5 3v1c1.4.2 2.6-.1 3.3-.7z"/></svg><svg viewBox="0 0 29 44.3" id="static--svg--paper-bag"><path d="M29 39.5l-.1-.9-3.2-29.5H20V5c.1-1.8-.8-3.5-2.3-4.4-1.3-.8-2.9-.8-4.3 0-.4.2-.8.6-1.2.9-1.4-.7-2.9-.7-4.1.1-1.5.9-2.4 2.6-2.4 4.4v3.1H3.9l-2.7 2.1-1.2 33h24.6v.1l.1-.1 4.2-4.2-.1-.1.2-.2v-.2zm-16.7-37c2.1 1.4 3.1 4.3 3.6 6.6H9.8c.3-2 1-4.8 2.5-6.6zm1.4-1.3c1.2-.6 2.5-.7 3.6 0 1.2.7 1.9 2.2 1.9 3.7v4.2h-2.5c-.5-2.5-1.6-5.6-3.8-7.2.2-.3.5-.5.8-.7zM6.5 5.9c0-1.5.7-2.9 1.9-3.6 1-.6 2.2-.7 3.3-.2-1.6 2-2.3 4.9-2.6 7H6.5V5.9z"/></svg><svg viewBox="0 0 32.001 32.001" id="static--svg--paperplane"><path d="M31.544.16a1.002 1.002 0 0 0-1.098.008l-30 20a.995.995 0 0 0-.439.936.995.995 0 0 0 .623.824l7.824 3.131 3.679 6.438a1 1 0 0 0 .857.504h.011c.351 0 .677-.186.857-.486l2.077-3.463 9.695 3.877a.992.992 0 0 0 .861-.058c.264-.148.445-.408.496-.707l5-30A1.002 1.002 0 0 0 31.544.16zM3.137 20.777L26.312 5.326 9.462 23.363c-.089-.053-.168-.123-.266-.162l-6.059-2.424zm7.053 3.289l-.007-.01L29.126 3.781 12.977 28.943l-2.787-4.877zm15.028 5.543l-8.541-3.416a1.987 1.987 0 0 0-.623-.119L29.206 5.686l-3.988 23.923z"/></svg><svg viewBox="0 0 77.946 53.929" id="static--svg--parcel"><path d="M77.609 32.256L59.723 1.261c-.668-1.16-2.277-1.594-3.44-.923l-12.118 7-.004.002-6.735 3.891-.003.002-12.119 7.001a2.524 2.524 0 0 0-.922 3.441l17.887 30.997a2.53 2.53 0 0 0 2.183 1.259c.44 0 .876-.117 1.257-.338l18.847-10.886.013-.007 12.122-7.002a2.527 2.527 0 0 0 .918-3.442zM45.418 8.928c.212 0 .409.113.515.296l3.889 6.737a.597.597 0 0 1-.217.812l-6.736 3.891a.6.6 0 0 1-.809-.218l-3.888-6.738a.589.589 0 0 1 .216-.808l6.738-3.892a.57.57 0 0 1 .292-.08zm-.675 42.997a.603.603 0 0 1-.809-.218L26.049 20.712a.596.596 0 0 1 .217-.812l10.008-5.781c.056.19.127.376.229.551l3.888 6.738a2.515 2.515 0 0 0 3.441.922l2.164-1.25 7.593 13.157-2.164 1.25c-.583.336-1 .879-1.175 1.529a2.505 2.505 0 0 0 .252 1.911l3.888 6.737c.102.176.229.332.366.475l-10.013 5.786zm18.86-10.894l-.004.002-6.733 3.888a.6.6 0 0 1-.809-.218l-3.888-6.737a.59.59 0 0 1 .216-.809l6.734-3.891a.597.597 0 0 1 .81.217l3.889 6.737a.594.594 0 0 1-.215.811zm12.122-7.002L65.716 39.81a2.468 2.468 0 0 0-.229-.553l-3.889-6.738c-.668-1.159-2.277-1.591-3.44-.922l-2.902 1.677-7.593-13.157 2.903-1.677a2.524 2.524 0 0 0 .922-3.441l-3.889-6.738a2.33 2.33 0 0 0-.371-.47l10.015-5.785a.59.59 0 0 1 .81.217L75.94 33.217a.595.595 0 0 1-.215.812zM16.167 45.464h13v1h-13zM10.083 40.384h13v1h-13zM6 35.051h13v1H6zM0 12.301h18v1H0zM11.917 7.465h18v1h-18zM19 2.051h18v1H19z"/></svg><svg viewBox="0 0 32 32" id="static--svg--paste"><path d="M22 4h-4V2c0-1.1-.9-2-2-2h-4c-1.1 0-2 .9-2 2v2H6v4h16V4zm-6 0h-4V2.004L12.004 2h3.993l.004.004V4zm10 6V5c0-.55-.45-1-1-1h-2v2h1v4h-6l-6 6v8H4V6h1V4H3c-.55 0-1 .45-1 1v20c0 .55.45 1 1 1h9v6h20V10h-6zm-8 2.828V16h-3.172L18 12.828zM30 30H14V18h6v-6h10v18z"/></svg><svg viewBox="0 0 32 32" id="static--svg--pencil"><path d="M30.173 7.542l-.314.314-5.726-5.729.313-.313S25.817.001 27.767.001c.859 0 1.832.353 2.849 1.37 3.354 3.354-.443 6.171-.443 6.171zm-2.194 2.195L8.48 29.243 0 32l2.756-8.485v-.003h.002L22.254 4.007l.252.253zM2.76 29.239l4.237-1.219-2.894-3.082-1.343 4.301z"/></svg><svg viewBox="0 0 470 470" id="static--svg--people"><path d="M255.179 194.635a37.382 37.382 0 0 0 6.335 29.865c12.154 16.729 35.652 20.449 52.38 8.296a38.022 38.022 0 0 0 2.812-2.28C324.259 233.403 332.445 235 341 235s16.741-1.597 24.294-4.484a37.816 37.816 0 0 0 2.812 2.28 37.294 37.294 0 0 0 21.992 7.148c11.606 0 23.06-5.358 30.388-15.445a37.381 37.381 0 0 0 6.335-29.865c7.867-7.06 12.429-17.131 12.429-27.885s-4.563-20.825-12.429-27.885a37.382 37.382 0 0 0-6.335-29.865 37.383 37.383 0 0 0-26.446-15.253 37.382 37.382 0 0 0-22.679-20.438A37.389 37.389 0 0 0 341 76.512a37.386 37.386 0 0 0-30.361-3.204 37.385 37.385 0 0 0-22.679 20.438 37.392 37.392 0 0 0-26.446 15.253 37.386 37.386 0 0 0-6.334 29.865c-7.867 7.06-12.429 17.131-12.429 27.885s4.561 20.826 12.428 27.886zm32.571-27.885c0-15.609 6.895-30.301 18.49-40.318 8.764 27.939 34.961 47.818 65.135 47.818 7.775 0 15.48-1.331 22.754-3.899C392.272 198.041 369.152 220 341 220c-29.362 0-53.25-23.888-53.25-53.25zm-19.831-18.816a7.5 7.5 0 0 0 2.897-8.918c-2.692-7.127-1.633-15.053 2.833-21.2 4.466-6.146 11.672-9.601 19.287-9.245a7.48 7.48 0 0 0 7.586-5.512c2.012-7.348 7.526-13.137 14.752-15.485s15.09-.906 21.038 3.857a7.502 7.502 0 0 0 9.377 0c5.947-4.762 13.812-6.204 21.037-3.857 7.226 2.348 12.741 8.137 14.752 15.485a7.496 7.496 0 0 0 7.586 5.512c7.606-.358 14.821 3.099 19.287 9.245 4.466 6.147 5.525 14.072 2.833 21.2a7.5 7.5 0 0 0 2.897 8.918c6.368 4.184 10.169 11.218 10.169 18.816s-3.801 14.632-10.169 18.816a7.5 7.5 0 0 0-2.897 8.918c2.692 7.127 1.633 15.052-2.833 21.199-6.539 8.999-18.54 11.7-28.188 6.912 17.572-12.36 29.087-32.777 29.087-55.845 0-2.838-.196-5.797-.582-8.793a7.501 7.501 0 0 0-11.13-5.57c-7.941 4.49-16.988 6.863-26.164 6.863-26.692 0-49.394-19.928-52.807-46.353a7.5 7.5 0 0 0-11.131-5.567c-21.395 12.109-34.686 34.877-34.686 59.42 0 23.068 11.515 43.485 29.087 55.845-9.648 4.788-21.649 2.088-28.188-6.912-4.465-6.147-5.524-14.072-2.833-21.199a7.5 7.5 0 0 0-2.897-8.918c-6.368-4.184-10.169-11.218-10.169-18.816s3.801-14.632 10.169-18.816zM426.776 297.74a7.486 7.486 0 0 0-1.042-.925C403.052 277.013 373.404 265 341 265c-34.909 0-67.607 13.729-92.07 38.657a7.5 7.5 0 0 0 10.706 10.506c.432-.44.871-.869 1.308-1.301A128.814 128.814 0 0 0 341 340.75c29.131 0 57.284-9.852 80.021-27.861C441.984 333.574 455 362.294 455 394a7.5 7.5 0 0 0 15 0c0-38.227-16.72-72.618-43.224-96.26zM341 325.75c-24.8 0-48.799-8.082-68.49-22.906C292.145 288.015 315.927 280 341 280c25.659 0 49.363 8.524 68.435 22.885A113.818 113.818 0 0 1 341 325.75zM192.587 152.208a7.5 7.5 0 0 0-7.048.179c-7.941 4.49-16.988 6.863-26.164 6.863-26.692 0-49.394-19.928-52.807-46.353a7.5 7.5 0 0 0-11.131-5.567c-21.395 12.109-34.686 34.877-34.686 59.42C60.75 204.383 91.367 235 129 235s68.25-30.617 68.25-68.25c0-2.838-.196-5.797-.582-8.793a7.5 7.5 0 0 0-4.081-5.749zM129 220c-29.362 0-53.25-23.888-53.25-53.25 0-15.609 6.895-30.301 18.49-40.318 8.764 27.939 34.961 47.818 65.135 47.818 7.775 0 15.48-1.331 22.754-3.899C180.272 198.041 157.152 220 129 220z"/><path d="M38.25 280.262a7.5 7.5 0 0 0 7.5-7.5V166.75c0-45.904 37.346-83.25 83.25-83.25s83.25 37.346 83.25 83.25v106.012a7.5 7.5 0 0 0 15 0V166.75c0-54.175-44.075-98.25-98.25-98.25s-98.25 44.075-98.25 98.25v106.012a7.5 7.5 0 0 0 7.5 7.5z"/><path d="M214.777 297.74a7.544 7.544 0 0 0-1.042-.925C191.052 277.013 161.404 265 129 265s-62.053 12.013-84.735 31.815c-.37.27-.717.58-1.041.924C16.72 321.382 0 355.773 0 394a7.5 7.5 0 0 0 15 0c0-31.706 13.016-60.426 33.979-81.111C71.716 330.898 99.869 340.75 129 340.75s57.284-9.852 80.021-27.861C229.984 333.574 243 362.294 243 394a7.5 7.5 0 0 0 15 0c0-38.227-16.72-72.617-43.223-96.26zM129 325.75a113.818 113.818 0 0 1-68.435-22.865C79.637 288.524 103.341 280 129 280s49.363 8.524 68.435 22.885A113.818 113.818 0 0 1 129 325.75z"/></svg><svg viewBox="0 0 24 24" id="static--svg--pin"><path d="M16.729 4.271a1 1 0 0 0-1.414-.004 1.004 1.004 0 0 0-.225.355c-.832 1.736-1.748 2.715-2.904 3.293C10.889 8.555 9.4 9 7 9a1.006 1.006 0 0 0-.923.617 1.001 1.001 0 0 0 .217 1.09l3.243 3.243L5 20l6.05-4.537 3.242 3.242a.975.975 0 0 0 .326.217c.122.051.252.078.382.078s.26-.027.382-.078A.996.996 0 0 0 16 18c0-2.4.444-3.889 1.083-5.166.577-1.156 1.556-2.072 3.293-2.904a.983.983 0 0 0 .354-.225 1 1 0 0 0-.004-1.414l-3.997-4.02z"/></svg><svg viewBox="0 0 24.459 30.286" id="static--svg--pinterest"><path d="M8.94 25.325c.233-.896 1.193-4.552 1.193-4.552.624 1.191 2.449 2.199 4.389 2.199 5.776 0 9.937-5.312 9.937-11.912C24.459 4.734 19.296 0 12.653 0 4.389 0 0 5.548 0 11.589c0 2.808 1.495 6.305 3.887 7.419.363.169.557.094.641-.256.063-.266.386-1.567.532-2.172.047-.193.024-.359-.133-.549-.791-.959-1.425-2.724-1.425-4.37 0-4.224 3.198-8.311 8.647-8.311 4.705 0 7.999 3.206 7.999 7.791 0 5.18-2.616 8.77-6.02 8.77-1.88 0-3.287-1.555-2.836-3.461.54-2.276 1.586-4.733 1.586-6.376 0-1.471-.789-2.698-2.423-2.698-1.922 0-3.465 1.988-3.465 4.651 0 1.696.573 2.843.573 2.843s-1.898 8.025-2.246 9.519c-.382 1.64-.237 3.935-.071 5.451.433.183.883.331 1.349.448.78-1.278 1.918-3.323 2.345-4.963z"/></svg><svg viewBox="14.369 16.248 11.275 10.25" id="static--svg--positive"><path d="M14.369 26.498h2.05v-6.15h-2.05v6.15zm11.275-5.638c0-.564-.461-1.025-1.025-1.025h-3.234l.487-2.342.015-.164a.768.768 0 0 0-.226-.543l-.543-.538-3.372 3.377c-.19.185-.302.441-.302.723v5.125c0 .564.461 1.025 1.025 1.025h4.612c.425 0 .789-.256.943-.625l1.548-3.613c.046-.118.072-.241.072-.374v-.979l-.005-.005.005-.042z"/></svg><svg viewBox="0 0 25.3 25.3" id="static--svg--price"><path d="M17.608 18.348l-7.071-7.071.707-.707 7.07 7.07z"/><path d="M24.7 14.1L13.4 2.8c-.7-.7-5.2-1.7-7.4-1.7-.6 0-1 .1-1.1.2L3.8 2.4 1.4 0 0 1.4l2.4 2.4-1.1 1.1c-.7.8.7 7.7 1.5 8.5l11.3 11.3c.4.4.9.6 1.4.6.5 0 1-.2 1.4-.6l7.8-7.8c.8-.8.8-2 0-2.8zm-9.2 9.2L4.3 12.1c-.5-1-1.2-4.8-1.2-6.1l.7-.7 2.4 2.4c0 .4.1.8.4 1.1.6.6 1.5.6 2.1 0s.6-1.5 0-2.1c-.2-.4-.7-.5-1.1-.5L5.2 3.8l.7-.7H6c1.8 0 5.2.8 6.1 1.2l11.2 11.2-7.8 7.8z"/></svg><svg viewBox="0 0 20 20" id="static--svg--question-mark"><path d="M10 0C4.5 0 0 4.5 0 10s4.5 10 10 10 10-4.5 10-10S15.5 0 10 0zm1 17H9v-2h2v2zm2.1-7.8l-.9.9c-.8.8-1.2 1.4-1.2 2.9H9v-.5c0-1.1.5-2.1 1.2-2.8l1.2-1.3c.4-.4.6-.9.6-1.4 0-1.1-.9-2-2-2s-2 .9-2 2H6c0-2.2 1.8-4 4-4s4 1.8 4 4c0 .9-.4 1.7-.9 2.2z"/></svg><svg viewBox="0 0 61 52.937" id="static--svg--responce"><path d="M29.342 32.437h21v1h-21zM12.342 32.437h14v1h-14zM12.342 28.437h38v1h-38z"/><path d="M57.342 0h-53C2.133 0 0 .728 0 2.937v37C0 42.146 2.133 45 4.342 45H12v7.937L25.092 45h32.25C59.551 45 61 42.146 61 39.937v-37C61 .728 59.551 0 57.342 0zM59 2.937v37C59 41.233 58.233 43 57.342 43H24.503l-.583.121L14 49.267V43H4.342C3.35 43 2 41.159 2 39.937v-37C2 1.668 3.98 2 4.342 2h53C59.175 2 59 2.538 59 2.937z"/><path d="M13.183 22.32c.9.74 1.9 1.04 2.981 1.04 2.621 0 4.861-1.82 4.861-4.801 0-2.601-1.72-4.621-4.401-4.621-.32 0-.58.02-.84.08l.86-2.881h4.281v-1.36H15.623l-1.94 6.441c1.2-.84 2.1-.92 2.581-.92 1.9 0 3.281 1.36 3.281 3.281 0 1.88-1.4 3.421-3.281 3.421-.92 0-1.6-.34-2.161-.8-.4-.32-.68-.64-.9-1.08l-1.18.84c.32.54.74 1 1.16 1.36zM29.72 21.792H31v-4.649h4.697v-1.289H31v-4.688h-1.28v4.688h-4.697v1.289h4.697z"/></svg><svg viewBox="0 0 49.8 35.3" id="static--svg--reverse"><path d="M49.8 14.6C49.8 6.6 38.6 0 24.9 0S0 6.6 0 14.6c0 4.5 3.3 8.6 9.2 11.4l.8-1.8c-5.1-2.4-8-5.9-8-9.6C2 7.6 12.2 2 24.9 2s22.9 5.7 22.9 12.7c0 6.5-8.9 11.9-20.3 12.6l4.4-4.6-1.4-1.3-6.7 7 6.7 7 1.4-1.3-4.6-4.8c12.6-.8 22.5-7.1 22.5-14.7z"/></svg><svg viewBox="0 0 482.368 482.368" id="static--svg--rocket1"><path d="M468.756 13.241C457.966 2.427 442.108-2.186 427.299.98c-47.696 10.211-137.739 37.375-204.92 104.542-20.236 20.234-38.564 41.292-54.703 62.394L14.908 181.96a16.006 16.006 0 0 0-13.589 10.502 16.002 16.002 0 0 0 3.737 16.763l94.955 94.971c-2.815 19.461-.626 35.921 6.145 49.003l-36.812 36.804c-6.255 6.255-6.255 16.388 0 22.645a15.958 15.958 0 0 0 11.323 4.69c4.097 0 8.194-1.563 11.322-4.69l36.781-36.781c9.211 4.793 20.001 7.459 32.635 7.459 4.786 0 9.869-.493 15.077-1.204l95.547 95.557a15.993 15.993 0 0 0 16.764 3.738 16.027 16.027 0 0 0 10.509-13.597l14.042-152.956c21.205-16.154 42.504-34.661 63.101-55.257 67.181-67.173 94.345-157.217 104.557-204.929 3.204-15.072-1.378-30.56-12.246-41.437zm-34.747 19.055c.907-.196 1.845-.29 2.767-.29 3.52 0 6.835 1.369 9.336 3.864a13.243 13.243 0 0 1 3.566 12.119 465.388 465.388 0 0 1-10.274 39.329c-10.79-2.4-20.971-7.498-29.133-15.661-8.133-8.14-13.214-18.312-15.606-29.079 14.901-4.597 28.334-7.928 39.344-10.282zM51.844 210.727l91.593-8.421c-10.775 16.765-20 33.34-27.164 49.291-2.579 5.755-4.77 11.323-6.786 16.796l-57.643-57.666zm102.164 139.898l35.999-35.99c.016-.024.03-.048.046-.07l.673-.672c6.254-6.257 6.254-16.398 0-22.645-6.255-6.255-16.388-6.255-22.645 0l-36.78 36.789c-2.205-15.216 2.517-37.297 14.199-63.327 4.315-9.625 9.523-19.525 15.341-29.564 22.472-.149 44.443 8.639 60.894 25.107 16.529 16.521 25.335 38.61 25.131 61.136-39.814 23.067-72.701 32.129-92.858 29.236zm116.52 80.262l-58.049-58.057c20.814-7.56 43.318-19.024 66.492-33.848l-8.443 91.905zm83.273-193.927c-31.932 31.916-62.99 56.633-91.295 74.835-2.08-23.324-12.229-45.656-29.445-62.866-17.155-17.155-39.393-27.296-62.632-29.415 19.501-30.361 44.897-61.661 74.594-91.35 40.972-40.964 91.718-65.687 134.128-80.458 3.222 13.089 9.883 25.349 19.797 35.271 9.93 9.946 22.238 16.523 35.358 19.745-14.762 42.427-39.487 93.226-80.505 134.238z"/><path d="M263.037 146.18c-9.727 9.72-15.091 22.645-15.091 36.391-.014 13.746 5.333 26.67 15.061 36.389 9.727 9.729 22.659 15.091 36.405 15.091 13.762 0 26.678-5.363 36.39-15.083 9.727-9.719 15.091-22.643 15.091-36.397 0-13.746-5.365-26.678-15.091-36.407-19.423-19.421-53.343-19.437-72.765.016zm61.442 61.466c-13.386 13.402-36.733 13.394-50.151-.008-6.694-6.694-10.369-15.591-10.369-25.06s3.691-18.375 10.4-25.075c6.692-6.702 15.591-10.393 25.067-10.393 9.477 0 18.359 3.683 25.052 10.376 6.71 6.708 10.4 15.615 10.4 25.084.001 9.469-3.69 18.374-10.399 25.076z"/></svg><svg viewBox="0 0 50 50" id="static--svg--sad"><g fill="#071C26"><path d="M25 27c-5.664 0-10.591 3.141-13.144 7.775C15.141 31.843 19.807 30 25 30c5.193 0 9.858 1.843 13.144 4.775C35.591 30.141 30.664 27 25 27zM32 15a2 2 0 1 0-.001 3.999A2 2 0 0 0 32 15zM18 15a2 2 0 1 0 0 4 2 2 0 0 0 0-4z"/><path d="M25 2c12.682 0 23 10.318 23 23S37.682 48 25 48 2 37.682 2 25 12.318 2 25 2m0-2C11.193 0 0 11.193 0 25s11.193 25 25 25 25-11.193 25-25S38.807 0 25 0z"/></g></svg><svg viewBox="0 0 27.1 28.8" id="static--svg--sandals"><path d="M10.7.5S4-2.2.8 4.8c-1.7 5-.2 8.1.2 9.6s.2 9.9.5 10.9 1.1 3.5 4 3.6c2.8.1 4.2-.7 4.1-4.8-.1-4.2 1.1-11.3 1.8-13.4.5-2.3 1.6-7.5-.7-10.2zM8.5 16.7c-.2.4-.6.5-1 .4-.4-.2-.5-.6-.4-1 3-6.5.2-9.1-.8-9.8-5.6 3.3-2.6 10-2.4 10.3.2.4 0 .8-.4 1-.1 0-.2.1-.3.1-.3 0-.6-.2-.7-.4 0-.1-3.8-8.5 3.3-12.4L6 3.5c.1-.4.5-.7.9-.6.4.1.7.5.6.9l-.2 1.4c1.4 1.1 4.4 4.4 1.2 11.5zM26.3 4.8C23.1-2.1 16.4.5 16.4.5c-2.4 2.7-1.3 7.9-.6 10.1.7 2.2 1.8 9.2 1.8 13.4-.1 4.2 1.3 4.9 4.1 4.8 2.8-.1 3.7-2.7 4-3.6.3-1 .2-9.3.5-10.9.3-1.4 1.8-4.5.1-9.5zm-1.7 12.4c-.1.3-.4.4-.7.4-.1 0-.2 0-.3-.1-.4-.2-.5-.6-.4-1 .1-.3 3.1-7-2.4-10.3-1 .8-3.8 3.4-.9 9.8.2.4 0 .8-.4 1-.4.2-.8 0-1-.4-3.2-7.1-.2-10.4 1.3-11.5l-.2-1.4c-.1-.4.2-.8.6-.9.4-.1.8.2.9.6l.2 1.3c7.1 4.1 3.4 12.4 3.3 12.5z"/></svg><svg viewBox="0 84.5 612 617.5" id="static--svg--search"><path d="M612 667.961L460.923 516.888c37.553-45.158 60.177-103.146 60.177-166.33 0-143.67-116.881-260.554-260.548-260.554C116.884 90.003 0 206.888 0 350.558c0 143.661 116.881 260.535 260.548 260.535 63.183 0 121.178-22.62 166.333-60.17L577.965 702 612 667.961zM260.548 562.957c-117.125 0-212.412-95.284-212.412-212.399 0-117.128 95.287-212.418 212.412-212.418S472.96 233.431 472.96 350.558c.004 117.115-95.287 212.399-212.412 212.399z"/></svg><svg viewBox="12.616 14.309 126.576 25.989" id="static--svg--shafa-logo"><path d="M24.602 33.206c0 1.872-1.512 2.952-3.671 2.952-2.052 0-4.392-1.008-5.795-2.844l-2.52 3.024c.576 1.224 1.656 2.196 3.24 2.916 1.62.684 3.276 1.044 5.003 1.044 2.412 0 4.391-.648 6.011-1.98 1.62-1.332 2.412-3.06 2.412-5.147 0-2.628-1.26-4.643-2.952-5.651a22.253 22.253 0 0 0-2.772-1.512c-2.844-1.332-5.687-2.124-5.687-4.787 0-1.692 1.368-2.772 3.528-2.772 1.692 0 3.168.612 4.463 1.872l2.376-3.312c-1.62-1.8-4.031-2.7-7.199-2.7-2.376 0-4.283.684-5.723 2.016-1.404 1.332-2.124 2.952-2.124 4.931 0 8.171 11.41 7.019 11.41 11.95zM57.606 39.901V14.704h-4.392v10.295H41.696V14.704h-4.428v25.197h4.428V29.139h11.518v10.763l4.392-.001zM68.857 39.901l2.628-6.443h10.763l2.628 6.443h4.715L78.936 14.632h-3.888L64.394 39.901h4.463zm11.699-10.582h-7.379l3.708-8.963 3.671 8.963zM100.843 39.901V30.11h8.891v-4.139h-8.891v-7.127h9.971v-4.139H96.416v25.197l4.427-.001zM118.458 39.901l2.628-6.443h10.763l2.628 6.443h4.715l-10.655-25.269h-3.888l-10.655 25.269h4.464zm11.698-10.582h-7.379l3.707-8.963 3.672 8.963z"/></svg><svg viewBox="0 0 299 80" id="static--svg--shafa-logo-registration"><path d="M56.462 36.881c-3.462 0-7.409-1.701-9.778-4.8l-4.251 5.104c.972 2.066 2.794 3.706 5.466 4.921 2.733 1.154 5.527 1.762 8.442 1.762 4.069 0 7.41-1.094 10.142-3.342 2.733-2.248 4.069-5.165 4.069-8.689 0-4.435-2.126-7.838-4.98-9.539-1.397-.911-2.976-1.762-4.676-2.552-4.798-2.248-9.596-3.585-9.596-8.081 0-2.856 2.308-4.679 5.952-4.679 2.854 0 5.345 1.033 7.531 3.159l4.008-5.59C66.058 1.519 61.989 0 56.644 0c-4.008 0-7.227 1.154-9.657 3.403-2.369 2.248-3.583 4.982-3.583 8.324 0 13.792 19.252 11.848 19.252 20.172.001 3.159-2.55 4.982-6.194 4.982zm54.47-18.835H91.497V.668h-7.47V43.2h7.47V25.033h19.435V43.2h7.41V.668h-7.41v17.378zm48.987 14.278l4.433 10.876h7.956L154.331.547h-6.559L129.795 43.2h7.531l4.433-10.876h18.16zm-9.05-22.116l6.195 15.129h-12.45l6.255-15.129zm55.425 9.478h-15.001V7.656h16.823V.668h-24.293V43.2h7.47V26.673h15.001v-6.987zm19.153 12.638h18.159L248.04 43.2h7.956L238.019.547h-6.559L213.482 43.2h7.531l4.434-10.876zm9.11-22.116l6.195 15.129h-12.45l6.255-15.129zM4.538 65.222c-.851 0-1.702.047-2.529.142v-4.753h7.35V58.72H0v16.551c.26 0 .851.024 1.725.047.875.024 1.631.047 2.245.047 3.994 0 6.358-1.868 6.358-5.273 0-3.025-2.127-4.87-5.79-4.87zm-.26 8.252c-.544 0-1.3-.024-2.269-.095v-6.124a22.45 22.45 0 0 1 2.411-.142c2.552 0 3.9 1.206 3.9 3.121-.001 2.058-1.372 3.24-4.042 3.24zm14.95-9.079c-1.442 0-2.86.615-3.616 1.489v-1.253h-1.891V80h1.891v-5.225c.733.497 1.749.733 3.002.733 1.631 0 2.978-.544 3.994-1.632 1.016-1.088 1.536-2.459 1.536-4.09 0-1.584-.449-2.885-1.347-3.878-.875-1.017-2.08-1.513-3.569-1.513zm-.78 9.339c-1.064 0-2.009-.284-2.836-.828v-5.273c.78-.969 1.82-1.466 3.072-1.466 2.151 0 3.451 1.49 3.451 3.689 0 2.27-1.442 3.878-3.687 3.878zm13.67-9.339c-1.702 0-3.049.52-4.018 1.584-.969 1.04-1.465 2.365-1.465 3.972 0 1.679.52 3.026 1.56 4.043 1.04 1.017 2.411 1.513 4.136 1.513 1.631 0 2.978-.473 3.994-1.395l-.591-1.49c-.78.733-1.867 1.111-3.262 1.111-2.104 0-3.545-1.206-3.711-3.192h8.177a6.52 6.52 0 0 0 .118-1.277c0-1.442-.473-2.601-1.418-3.499-.944-.921-2.126-1.37-3.52-1.37zm-3.475 4.61c.213-1.679 1.489-2.837 3.38-2.837 1.82 0 2.978 1.064 3.073 2.837h-6.453zm19.258 0h-5.908v-4.374h-1.891v10.64h1.891v-4.492h5.908v4.492h1.891v-10.64h-1.891v4.374zm14.733-4.374h-7.256l-.165 2.814c-.189 2.766-.875 5.107-1.631 6.053h-1.323v4.374h1.773v-2.601h8.603v2.601h1.772v-4.374h-1.772v-8.867zm-1.891 8.867h-5.152c.567-.757 1.229-2.837 1.442-5.32l.118-1.773h3.592v7.093zm11.03-9.103c-1.678 0-3.049.52-4.112 1.584-1.04 1.04-1.56 2.365-1.56 3.972 0 1.608.52 2.932 1.56 3.996 1.064 1.04 2.434 1.561 4.112 1.561s3.049-.52 4.089-1.561c1.064-1.064 1.583-2.388 1.583-3.996s-.52-2.932-1.583-3.972c-1.041-1.064-2.411-1.584-4.089-1.584zm0 9.339c-1.063 0-1.962-.355-2.647-1.064-.685-.709-1.016-1.608-1.016-2.719 0-1.111.355-2.033 1.04-2.719.685-.709 1.56-1.064 2.623-1.064s1.938.355 2.623 1.064c.685.709 1.04 1.608 1.04 2.719 0 2.246-1.513 3.783-3.663 3.783zm15.097-3.972v-.047c1.253-.189 2.127-1.182 2.127-2.435 0-1.821-1.536-2.743-4.585-2.743-.567 0-1.3.024-2.174.047-.874.024-1.418.047-1.678.047v10.64c.307 0 .898.024 1.82.047.922.024 1.607.047 2.08.047 3.261 0 4.892-1.04 4.892-3.097-.001-1.371-.828-2.199-2.482-2.506zm-4.42-3.618a47.283 47.283 0 0 1 2.103-.071c1.631 0 2.434.52 2.434 1.584 0 1.017-.851 1.655-2.151 1.655H82.45v-3.168zm2.174 7.685c-.307 0-1.04-.024-2.174-.071v-3.263h2.269c1.749 0 2.623.544 2.623 1.631 0 1.135-.898 1.703-2.718 1.703zm11.598-6.006h-1.749v-3.192h-1.891v10.64h3.427c1.536 0 2.671-.355 3.356-1.088.709-.733 1.064-1.632 1.064-2.696 0-2.151-1.182-3.664-4.207-3.664zm-.378 5.675h-1.371v-3.901h1.394c1.702 0 2.553.662 2.553 1.963 0 1.299-.756 1.938-2.576 1.938zm6.617 1.773h1.891v-10.64h-1.891v10.64zm10.488-10.876c-1.702 0-3.049.52-4.018 1.584-.969 1.04-1.465 2.365-1.465 3.972 0 1.679.52 3.026 1.56 4.043 1.04 1.017 2.411 1.513 4.136 1.513 1.631 0 2.978-.473 3.994-1.395l-.591-1.49c-.78.733-1.867 1.111-3.262 1.111-2.103 0-3.545-1.206-3.711-3.192h8.177a6.52 6.52 0 0 0 .118-1.277c0-1.442-.473-2.601-1.418-3.499-.944-.921-2.126-1.37-3.52-1.37zm-3.475 4.61c.213-1.679 1.489-2.837 3.38-2.837 1.82 0 2.978 1.064 3.073 2.837h-6.453zm23.317.757v-.047c1.253-.189 2.127-1.182 2.127-2.435 0-1.821-1.536-2.743-4.585-2.743-.567 0-1.3.024-2.174.047-.875.024-1.418.047-1.678.047v10.64c.307 0 .898.024 1.82.047.922.024 1.607.047 2.08.047 3.262 0 4.892-1.04 4.892-3.097 0-1.371-.828-2.199-2.482-2.506zm-4.419-3.618a47.283 47.283 0 0 1 2.103-.071c1.631 0 2.434.52 2.434 1.584 0 1.017-.851 1.655-2.151 1.655h-2.387v-3.168zm2.174 7.685c-.307 0-1.04-.024-2.174-.071v-3.263h2.269c1.749 0 2.623.544 2.623 1.631 0 1.135-.898 1.703-2.718 1.703zm12.701-9.434c-1.702 0-3.049.52-4.018 1.584-.969 1.04-1.465 2.365-1.465 3.972 0 1.679.52 3.026 1.56 4.043 1.04 1.017 2.411 1.513 4.136 1.513 1.631 0 2.978-.473 3.994-1.395l-.591-1.49c-.78.733-1.867 1.111-3.262 1.111-2.103 0-3.545-1.206-3.711-3.192h8.177a6.52 6.52 0 0 0 .118-1.277c0-1.442-.473-2.601-1.418-3.499-.944-.921-2.125-1.37-3.52-1.37zm-3.474 4.61c.213-1.679 1.489-2.837 3.38-2.837 1.82 0 2.978 1.064 3.072 2.837h-6.452zm24.929-4.374h-1.891v8.867h-3.9v-8.867h-1.891v8.867h-3.9v-8.867h-1.891v10.64H164.7v2.601h1.772v-4.374H164.7v-8.867zM171 72.552v-7.921h-1.891v10.64H171l6.145-7.921v7.921h1.891v-10.64h-1.891L171 72.552zm12.469.189c-.78 0-1.347.591-1.347 1.253 0 .733.567 1.348 1.347 1.348.733 0 1.253-.615 1.253-1.348 0-.638-.567-1.253-1.253-1.253zm23.203-14.021h-9.737l-.166 3.31c-.165 3.05-.52 5.533-1.111 7.495-.567 1.939-1.111 3.216-1.607 3.854h-1.773v4.965h1.891V75.27h12.857v3.074h1.891V73.38h-2.245V58.72zm-2.009 14.66h-8.39c.402-.496.874-1.631 1.371-3.381.496-1.773.851-3.901 1.016-6.431l.213-2.956h5.79V73.38zm11.904-8.985c-1.678 0-3.049.52-4.112 1.584-1.04 1.04-1.56 2.365-1.56 3.972 0 1.608.52 2.932 1.56 3.996 1.063 1.04 2.434 1.561 4.112 1.561s3.049-.52 4.089-1.561c1.064-1.064 1.583-2.388 1.583-3.996s-.52-2.932-1.583-3.972c-1.041-1.064-2.411-1.584-4.089-1.584zm0 9.339c-1.064 0-1.962-.355-2.647-1.064-.685-.709-1.016-1.608-1.016-2.719 0-1.111.354-2.033 1.04-2.719.685-.709 1.56-1.064 2.623-1.064 1.064 0 1.938.355 2.623 1.064.685.709 1.04 1.608 1.04 2.719 0 2.246-1.513 3.783-3.663 3.783zm14 0c-1.087 0-2.009-.355-2.742-1.04-.733-.686-1.087-1.608-1.087-2.743 0-1.088.354-1.986 1.063-2.696.733-.733 1.583-1.088 2.576-1.088 1.229 0 2.245.378 3.049 1.111l.874-1.49c-.922-.922-2.316-1.395-4.183-1.395-1.536 0-2.836.544-3.852 1.608s-1.536 2.388-1.536 3.949c0 1.679.52 3.026 1.56 4.043 1.064 1.017 2.434 1.513 4.136 1.513 1.678 0 3.214-.638 4.089-1.773l-.898-1.371c-.804.923-1.82 1.372-3.049 1.372zm5.885-7.211h3.9v8.748h1.891v-8.748h3.9v-1.891h-9.69v1.891zm17.998 4.847a30.298 30.298 0 0 0-.496 1.631c-.354-.922-.567-1.466-.638-1.608l-3.12-6.762h-2.269l5.105 10.64-.236.568c-.733 1.702-1.394 2.412-2.269 2.412-.284 0-.685-.118-1.182-.355l-.614 1.442c.662.449 1.323.662 2.009.662.78 0 1.465-.331 2.056-.993.591-.638 1.253-1.891 2.009-3.736l4.254-10.64h-2.151l-2.458 6.739zm7.065 3.901h1.891v-8.867h5.79v8.867h1.891v-10.64h-9.572v10.64zm21.135-6.266h-5.909v-4.374h-1.891v10.64h1.891v-4.492h5.909v4.492h1.891v-10.64h-1.891v4.374zm14.767-3.026c-1.04-1.064-2.411-1.584-4.089-1.584-1.678 0-3.049.52-4.112 1.584-1.04 1.04-1.56 2.365-1.56 3.972 0 1.608.52 2.932 1.56 3.996 1.063 1.04 2.434 1.561 4.112 1.561s3.049-.52 4.089-1.561c1.063-1.064 1.583-2.388 1.583-3.996s-.52-2.932-1.583-3.972zm-4.089 7.755c-1.064 0-1.962-.355-2.647-1.064-.685-.709-1.016-1.608-1.016-2.719 0-1.111.354-2.033 1.04-2.719.685-.709 1.56-1.064 2.623-1.064 1.063 0 1.938.355 2.623 1.064.685.709 1.04 1.608 1.04 2.719 0 2.246-1.512 3.783-3.663 3.783z"/></svg><svg viewBox="0 0 230.453 230.453" id="static--svg--shapes"><path d="M177.169 43.534v15h27.676l-68.949 68.945L92.36 83.947 0 176.312l10.606 10.606 81.755-81.758 43.535 43.531 79.557-79.551v27.644h15v-53.25z"/></svg><svg viewBox="0 0 48.296 50.27" id="static--svg--shirt"><path d="M41.643 19.122h-9.74c-.61 0-1.105.495-1.105 1.105v9.602c0 .61.495 1.105 1.105 1.105h9.74c.61 0 1.105-.495 1.105-1.105v-9.602c0-.61-.495-1.105-1.105-1.105zm0 1.105v.158c-1.554 1.757-3.197 2.644-4.875 2.604-2.395-.05-4.272-1.926-4.865-2.593v-.168h9.74zm-9.74 9.602v-8.008c1.009.922 2.721 2.119 4.836 2.167l.129.001c1.668 0 3.268-.735 4.775-2.166v8.006h-9.74z"/><path d="M38.817 6.712l-.415-.568L34.506.81 33.915 0h-18.56l-.591.81-4.291 5.875C5.45 6.809 0 9.788 0 11.826v35.592a2.855 2.855 0 0 0 2.852 2.852h42.592a2.855 2.855 0 0 0 2.852-2.852V11.825c0-1.771-4.543-4.739-9.479-5.113zM16.358 1.973h16.554v.001l3.895 5.333-6.817 6.667-6.184-11.167-5.5 11.167-6.817-5.334 4.869-6.667zM2 47.418V11.956c.459-.739 3.304-2.614 6.916-3.14l-.147.202 1.504 1.177 6.817 5.333 1.913 1.497 1.073-2.179 2.72-5.522V48.27H2.852A.853.853 0 0 1 2 47.418zm44.296 0c0 .47-.382.852-.852.852H24.796V8.67l3.468 6.262 1.255 2.266 1.852-1.811 6.817-6.667.033-.033c4.165.15 7.596 2.431 8.074 3.257v35.474z"/></svg><svg viewBox="0 0 34 31.1" id="static--svg--shoes"><path d="M29.1.2c-.2-.3-.6-.2-.8.1-1.1 2.2-5 10-6.2 12.5-1.4 2.9-5.2 10.2-8.8 11.7-1.8.8-3.5-.9-4.3-1.8-.2-.3-.7-.4-1-.2-1.9 1.1-8 4.6-8 4.9 0 .4-.6.9 3.2 1.9 3.6.9 7.9 1.7 14 1.7.9 0 1.7-.5 2.1-1.3 1.6-3.5 6.2-13.1 8.4-13.9 1.3-.1 1.3 2.3 1.3 2.3L30 31h1l.8-14.5c.8-2.1 2.1-7.9 2.1-7.9.1-.1.1-.2.1-.4.3-1.8-3.6-6.5-4.9-8z"/></svg><svg viewBox="0 0 82 80.896" id="static--svg--shopping-bags"><path d="M75.999 29.817c-.037-1.618-1.219-2.921-2.666-2.921h-6.722V25.39c0-4.105-1.72-8.126-4.72-11.034-3.052-2.958-7.051-4.501-11.296-4.383-2.134.067-4.736.622-6.569 1.893C42.481 5.076 36.583 0 29.547 0c-8.208 0-14.886 6.901-14.886 15.385v2.511H6.667c-.92 0-1.667.895-1.667 2l-5 59a2 2 0 0 0 2 2h56a2 2 0 0 0 2-2l-.508-5H79c1.654 0 3-1.346 3-3l-6.001-41.079zM50.657 11.942c3.714-.118 7.198 1.245 9.864 3.828 2.619 2.539 4.121 6.044 4.121 9.62v1.506h-9.931l-.712-7c0-1.105-.746-2-1.667-2h-7.898v-2.511c0-.413-.029-.819-.06-1.224 1.085-1.264 3.516-2.132 6.283-2.219zm-34.098 3.443c0-7.437 5.826-13.486 12.988-13.486s12.989 6.05 12.989 13.486v2.511H16.559v-2.511zM2.007 78.896l4.986-58.831L7 19.98v-.084h7.661v9.205C12.554 29.689 11 31.602 11 33.896a5 5 0 0 0 10 0c0-2.57-1.946-4.662-4.441-4.944v-9.056h25.977v9.243C40.494 29.768 39 31.648 39 33.896a5 5 0 0 0 10 0c0-2.612-2.01-4.733-4.565-4.956v-9.044H52v.101l.01.101 5.979 58.798H2.007zm14.552-47.943A3.001 3.001 0 0 1 19 33.896c0 1.654-1.346 3-3 3s-3-1.346-3-3c0-1.17.681-2.176 1.661-2.67v3.67h1.898v-3.943zm27.876-.013A2.996 2.996 0 0 1 47 33.896c0 1.654-1.346 3-3 3s-3-1.346-3-3c0-1.12.624-2.087 1.536-2.602v3.602h1.898V30.94zM79 71.896H59.288l-4.373-43h9.727v10.21c-2.096.595-3.642 2.503-3.642 4.79a5 5 0 0 0 10 0c0-2.552-1.919-4.634-4.389-4.938V28.896h6.722c.315 0 .667.411.667 1l5.998 41.061a1 1 0 0 1-.998.939zM66.611 40.959A3.006 3.006 0 0 1 69 43.896c0 1.654-1.346 3-3 3s-3-1.346-3-3c0-1.163.672-2.162 1.643-2.66v3.661h1.969v-3.938z"/></svg><svg viewBox="0 0 27.6 36.5" id="static--svg--shorts"><path d="M13.8 5.1c4.7 0 9.2-.9 12.8-2.5-.4-1.1-.9-2-1.3-2.5-3 1.1-7.1 1.7-11.5 1.7S5.3 1.1 2.3 0C2 .5 1.5 1.4 1 2.5c3.6 1.7 8.1 2.6 12.8 2.6zm-1.1-2.9h2.1v2.1h-2.1V2.2zM5 8.3c.8-.7 1.2-1.6 1.4-2.3-2.1-.4-4.1-1-5.9-1.8C.2 5.3 0 6.5 0 7.8v1.8c2.2.2 3.8-.2 5-1.3zM22.5 8.3c1.2 1 2.9 1.5 5 1.3V7.8c0-1.3-.2-2.6-.5-3.6-1.8.8-3.8 1.5-6 1.9.4.7.8 1.6 1.5 2.2z"/><path d="M26.6 10.7c-2 0-3.6-.5-4.7-1.6-1-.9-1.5-1.9-1.8-2.8-1.5.3-3 .4-4.5.5v4.7h-.7v1.4h-2.1V6.8c-1.8-.1-3.6-.2-5.3-.5-.3.8-.8 1.9-1.8 2.8-1.2 1-2.8 1.6-4.7 1.6H.1C.4 18.3 1.6 35 2.2 36.6h8.5l2.5-19.8H14.5L17 36.5h8.5c.5-1.5 1.7-18.2 2.1-25.9-.4 0-.7.1-1 .1z"/></svg><svg viewBox="0 0 25 18" id="static--svg--size-bottom"><path d="M23 0H2C.9 0 0 .9 0 2v14c0 1.1.9 2 2 2h8c1.1 0 2-.9 2-2 0 0 .2-3.5.5-3.5S13 16 13 16c0 1.1.9 2 2 2h8c1.1 0 2-.9 2-2V2c0-1.1-.9-2-2-2zM9 2h14v3.5H2V2h7zm6 14v-.1c-.2-3-.3-5.4-2.5-5.4s-2.3 2.4-2.5 5.4v.1H2V6.5h21V16h-8z"/></svg><svg viewBox="0 0 28.1 16" id="static--svg--size-shoe"><path d="M28 4.5C27.1.8 26 0 26 0h-.4c-2.5 0-1.9 2-7.6 2-1.3 0-2.7-1-4-2-1.8 1.8-1.7 3.7-5 6-1.9.9-3.4 1-4.3 1H4c-2.2 0-4 1.8-4 4 0 4 6.6 5 9 5 5 0 6.7-1.1 11-3v2h6s2.6-8 2-10.5zM24.5 13H22V9.9l-2.8 1.3c-.5.2-.9.4-1.3.6C14.5 13.3 13 14 9 14c-2.4 0-7-1.1-7-3 0-1.1.9-2 2-2H4.6c1.2 0 3-.1 5.2-1.2l.2-.1.1-.1c2.4-1.7 3.3-3.2 4-4.5.1-.1.1-.3.2-.4.4.2.7.4 1.1.6l-2.8 4.9.9.5 2.9-5c.6.2 1.1.3 1.6.3 3.7 0 5.2-.8 6.6-1.6.2-.1.4-.2.5-.3.3.5.6 1.4 1 2.9.2 1-.6 4.7-1.6 8z"/></svg><svg viewBox="0 0 25.034 25.497" id="static--svg--size-top"><path d="M24.44 4.484S22.303 1.435 20.907.831C19.855.375 18.032 0 17.833 0c-1.426 0-1.476 0-1.476 1.539 0 1.935-2.874 3.503-3.859 3.503-.983 0-3.85-1.568-3.85-3.503C8.648.007 8.637.007 7.16.007c-.194 0-2.495.438-3.051.824C3.115 1.518.584 4.484.584 4.484a2.119 2.119 0 0 0 0 2.922l1.95 2.192c.419.448 1.204.794 2.048.901.25.031.429.258.429.51v12.022c0 1.106.648 2.467 1.711 2.467h11.564c1.066 0 1.725-1.361 1.725-2.467V11.007c0-.25.177-.477.425-.509.815-.107 1.499-.453 1.918-.9l2.102-2.192c.781-.807.764-2.115-.016-2.922zM7.011 23.031V9.233a.671.671 0 0 0-.653-.671l-1.133-.03c-.612-.015-1.049-.226-1.17-.323L1.982 6.018c-.049-.396 2.728-3.147 3.23-3.52.266-.13 1.058-.324 1.534-.423.357 2.612 3.11 4.618 5.11 4.977v16.521l-4.844-.076-.001-.466zM20.861 8.23c-.123.131-.416.289-.933.302l-1.263.031a.672.672 0 0 0-.655.671V23.497l-5.156.076V7.091c2-.246 5.148-2.298 5.526-5.005.43.103 1.128.306 1.759.579.477.226 1.746 1.641 2.677 2.967l.188.242c.007.248-2.143 2.356-2.143 2.356z"/></svg><svg viewBox="0 0 44.4 36.1" id="static--svg--skirt"><path d="M13.5 2.3s1.6 2.3 8.7 2.3 8.6-2.3 8.7-2.3l.3-.5v-.6c0-1.1-.5-1.5-2-1.1-2.8.8-6 .9-7 .9s-4.2-.1-7-.9c-1.5-.4-2-.1-2 1.1v.5l.3.6z"/><path d="M44.2 23C41.6 15.1 33 5.4 31.4 3.7c-.3.4-2.3 2.6-9.2 2.6-6.9 0-8.9-2.2-9.2-2.6C11.4 5.5 2.8 15.1.2 23c-.8 1.8.7 2.9 1.7 3.6.3-.6.6-1.3 1.1-2.2.5-1 1.1-2.2 1.8-3.5.3-.6.7-1.3 1.1-1.9.4-.6.7-1.3 1.2-2 .4-.6.8-1.3 1.2-1.9.4-.6.8-1.3 1.2-1.8.4-.6.8-1.1 1.2-1.7.4-.5.7-1.1 1.1-1.5 1.5-1.7 2.4-2.9 2.4-2.9s-.9 1.2-2.2 3.1c-.3.4-.6 1-1 1.5-.3.6-.7 1.1-1.1 1.7-.4.6-.7 1.2-1.1 1.9-.4.7-.7 1.3-1.1 2-.4.7-.7 1.4-1 2-.3.7-.7 1.3-.9 2-.6 1.3-1.1 2.5-1.5 3.6-.4 1-.8 1.9-1 2.5-.2.6-.4 1-.4 1h-.1c.9 1.3 2.7 3 6.2 3.6V32c.1-.7.4-1.8.6-3.1.3-1.3.7-2.7 1-4.3.2-.8.4-1.6.7-2.4.2-.8.5-1.6.7-2.4.3-.8.6-1.6.8-2.4.3-.8.5-1.6.8-2.3.3-.7.6-1.5.9-2.1.3-.7.5-1.3.8-1.9 1.1-2.3 1.9-3.8 1.9-3.8s-.7 1.6-1.6 3.9c-.3.6-.4 1.3-.7 1.9-.2.7-.5 1.4-.7 2.2-.3.7-.5 1.6-.7 2.4-.2.8-.4 1.6-.7 2.4-.2.8-.4 1.7-.6 2.5-.2.8-.4 1.6-.5 2.4-.3 1.6-.6 3-.8 4.3-.2 1.3-.4 2.3-.4 3-.1.7-.1 1.2-.1 1.2 1.6 1.1 4.9 2.5 11 2.6h1.4c6.5-.2 9.7-1.7 11.2-2.8 0-.2-.1-.5-.1-1-.1-.7-.2-1.8-.4-3-.2-1.3-.5-2.7-.8-4.3-.1-.8-.3-1.6-.5-2.4-.2-.8-.3-1.6-.6-2.5-.2-.8-.4-1.6-.7-2.4-.2-.8-.4-1.6-.7-2.4-.3-.8-.5-1.5-.7-2.2-.2-.7-.4-1.4-.7-1.9-1-2.4-1.6-3.9-1.6-3.9s.8 1.5 1.9 3.8c.3.6.5 1.2.8 1.9l.9 2.1c.3.7.6 1.5.8 2.3.3.8.5 1.6.8 2.4.3.8.5 1.6.7 2.4.2.8.5 1.6.7 2.4.4 1.6.8 3 1 4.3.3 1.3.5 2.3.6 3.1 3.5-.6 5.2-2.4 6-3.7-.1-.2-.2-.4-.3-.7-.2-.6-.6-1.5-1-2.5-.4-1.1-1-2.3-1.5-3.6-.3-.6-.6-1.3-.9-2-.3-.7-.6-1.4-1-2-.4-.7-.7-1.3-1.1-2-.4-.7-.7-1.3-1.1-1.9-.4-.6-.7-1.2-1.1-1.7-.4-.5-.6-1.1-1-1.5-1.3-1.8-2.2-3.1-2.2-3.1s1 1.2 2.4 2.9c.4.4.7 1 1.1 1.5.4.5.8 1.1 1.2 1.7l1.2 1.8c.4.6.8 1.3 1.2 1.9.4.6.8 1.3 1.2 2 .4.7.8 1.3 1.1 1.9.7 1.3 1.3 2.4 1.8 3.5.4.8.7 1.5 1 2 1.3-.8 2.5-1.8 1.8-3.5z"/></svg><svg viewBox="0 0 20 20" id="static--svg--smile"><circle cx="13" cy="8" r="1"/><circle cx="7" cy="8" r="1"/><path d="M10 15.5c-2.5 0-4.5-1.4-4.5-3.1h-1c0 2.2 2.5 4.1 5.5 4.1s5.5-1.8 5.5-4.1h-1c0 1.7-2 3.1-4.5 3.1z"/><path d="M10 0C4.5 0 0 4.5 0 10s4.5 10 10 10 10-4.5 10-10S15.5 0 10 0zm0 19c-5 0-9-4-9-9s4-9 9-9 9 4 9 9-4 9-9 9z"/></svg><svg viewBox="0 0 41.6 26.7" id="static--svg--sneakers"><path d="M28.1 22.1c.1 0 9-.3 13.3-1.3h.2v-.1s-3.2.5-7 .9l7-.9s-.5-3.5-7-3.2c0 0-4 .2-8.5-1.5-.2-.1-.4-.2-.6-.2-5.2-2.3-7.5-6-7.7-6.3V5.8c0-.2-.2-.4-.4-.4h-.3l-.5-3.2S16.3 0 15.3 0 13-.3 13 1.7H3.1s-.9 9.7-2 12.2S0 22 0 22v.1h12.1v1.7L0 23.9v2.8h28.1s10.5-.2 13.5-4v-.1c-4.5 1-13.1 1.3-13.5 1.3H15.6v-1.7h12.5zM8.9 14.6c-2 0-3.6-1.6-3.6-3.6s1.6-3.6 3.6-3.6S12.5 9 12.5 11s-1.6 3.6-3.6 3.6zm4.4 9.3v-1.7h1.1V24h-1.1z"/></svg><svg viewBox="0 0 104.357 69.405" id="static--svg--speach-bubbles"><path d="M72.359 19.398a4 4 0 1 0 0 8 4 4 0 0 0 0-8zm0 6c-1.103 0-2-.897-2-2s.897-2 2-2 2 .897 2 2-.897 2-2 2zM88.359 19.398a4 4 0 1 0 0 8 4 4 0 0 0 0-8zm0 6c-1.103 0-2-.897-2-2s.897-2 2-2 2 .897 2 2-.897 2-2 2z"/><path d="M72.359 0c-15.344 0-28.16 7.427-31.272 17.337a45.627 45.627 0 0 0-9.225-.932c-17.673 0-31.862 9.85-31.862 22 0 9.101 8.638 16.91 19.638 20.257v10.742l11.139-9.021c.407.01.744.021 1.155.021 15.35 0 28.145-7.433 31.244-17.348 2.913.601 5.988.944 9.186.944.731 0 1.449-.023 2.168-.056l11.822 9.461V41.786c11-3.571 18.006-11.088 18.006-19.786-.001-12.15-14.325-22-31.999-22zM31.86 58.405c-.384 0-.768-.01-1.175-.021l-.73-.019-.427.456-7.89 6.423V57.18l-1.561-.431C9.264 53.459 1.928 46.088 1.928 38.405c0-11.028 13.389-20 29.934-20 16.541 0 29.999 8.972 29.999 20s-13.459 20-30.001 20zm25.519-33.293a27.443 27.443 0 0 0-2.921-2.296 1.993 1.993 0 0 1 1.901-1.419c1.103 0 2 .897 2 2 0 .731-.394 1.367-.98 1.715zm28.354 14.772l-1.383.449v8.91l-8.572-6.86-.589-.471-.753.035c-.797.036-1.456.053-2.074.053-3.034 0-5.953-.318-8.715-.88.159-.891.251-1.796.251-2.716 0-4.377-1.872-8.451-5.083-11.878a3.955 3.955 0 0 0 1.544-3.127 4 4 0 0 0-4-4.001c-1.612 0-2.978.964-3.609 2.339-2.846-1.684-6.122-3.032-9.706-3.95C45.956 8.777 57.987 2 72.359 2c16.541 0 29.997 8.972 29.997 20 0 7.703-6.37 14.555-16.623 17.884z"/><path d="M16.405 34.405a4 4 0 1 0 0 8 4 4 0 0 0 0-8zm0 6c-1.103 0-2-.897-2-2s.897-2 2-2 2 .897 2 2-.897 2-2 2zM48.405 34.405a4 4 0 1 0 0 8 4 4 0 0 0 0-8zm0 6c-1.103 0-2-.897-2-2s.897-2 2-2 2 .897 2 2-.897 2-2 2zM32.709 44.595a.873.873 0 0 0-.413-.229 2.538 2.538 0 0 0-.641-.07c-.271 0-.491.023-.66.07a.919.919 0 0 0-.413.229.845.845 0 0 0-.216.444 3.68 3.68 0 0 0-.057.705c0 .28.019.51.057.692a.91.91 0 0 0 .216.444.854.854 0 0 0 .413.241c.169.046.389.07.66.07.254 0 .468-.023.641-.07.173-.047.311-.127.413-.241s.171-.262.21-.444c.038-.182.057-.413.057-.692s-.019-.515-.057-.705-.108-.338-.21-.444zM35.744 31.055c-.423-.44-.961-.789-1.612-1.047-.652-.258-1.43-.387-2.336-.387-.44 0-.865.038-1.276.114s-.787.169-1.13.279c-.343.11-.635.231-.876.362-.241.131-.404.237-.489.317a.56.56 0 0 0-.165.279c-.025.106-.038.26-.038.463 0 .186.008.341.025.463.017.123.042.22.076.292a.304.304 0 0 0 .121.146.328.328 0 0 0 .159.038c.084 0 .214-.051.387-.152.173-.102.396-.216.667-.343.271-.127.59-.243.958-.349a4.677 4.677 0 0 1 1.288-.159c.559 0 1.043.081 1.454.241.41.161.751.387 1.022.679.271.292.474.639.609 1.041.135.402.203.844.203 1.327 0 .423-.055.83-.165 1.219-.11.389-.286.728-.527 1.016a2.572 2.572 0 0 1-.946.692c-.389.174-.859.26-1.409.26h-.279c-.152 0-.288.015-.406.044a.591.591 0 0 0-.292.165.768.768 0 0 0-.171.305 1.423 1.423 0 0 0-.044.476l.076 3.517c0 .068.017.127.051.178a.34.34 0 0 0 .165.121c.076.03.178.051.305.063.127.013.279.019.457.019.33 0 .569-.032.717-.095s.222-.159.222-.286l.089-3.06a5.363 5.363 0 0 0 1.777-.406 4.03 4.03 0 0 0 1.371-.952c.381-.406.677-.897.889-1.473.211-.576.317-1.236.317-1.98 0-.66-.102-1.286-.305-1.878s-.516-1.109-.939-1.549z"/></svg><svg viewBox="0 0 35.8 35.8" id="static--svg--square"><path d="M10.4 35.9H0V25.5h1.9V34h8.5v1.9zm25.5-10.4H34V34h-8.5v1.8h10.4V25.5zM35.8 0H25.5v1.9H34v8.5h1.8V0zM1.9 1.9h8.5V0H0v10.4h1.9V1.9z"/></svg><svg viewBox="13.994 14.037 12 11.926" id="static--svg--star"><path d="M19.994 23.163l3.71 2.8-1.42-4.521 3.71-2.738h-4.55l-1.45-4.667-1.45 4.667h-4.55l3.71 2.738-1.42 4.521 3.71-2.8z"/></svg><svg viewBox="0 0 34.6 49.5" id="static--svg--sweamwear"><path d="M17.8 34.5H0V39.7s9.9.8 14.6 9.8H20c1.2-2.3 2.7-4 4.2-5.3.6-.5 1.2-1 1.8-1.4.4-.3.8-.5 1.2-.7 1-.6 2-1 2.9-1.3.2-.1.4-.1.5-.2.3-.1.5-.2.7-.2h.1c.2-.1.4-.1.7-.2h.1c.2 0 .4-.1.6-.1h.1c.2 0 .4-.1.5-.1h.1c.1 0 .3-.1.4-.1h.6v-5.1H17.8zM20.1 29.3h14v-3.8s-.4-4.2-5.9-8.3c-.7-1.9-3.4-8.3-8.8-12.2l.5-1s1.7-2.1 1-3.5-3.1.7-2.8 3h-1v-.1H17c-.1-.6-.9-4-3.8-3.1-1.1.7-.3 3.6 2.6 4v.9c-5.5 4-8.1 10.6-8.7 12.2l-.1-.2c-5.6 4.1-6 8.4-6 8.4v3.8h19.1zM15.8 5.6v2.1h.9v.6H18V5h.2l1 .3L28 17.4l-8.2 10.9h-4.7l-8-10.7 8.7-12z"/></svg><svg viewBox="0 0 39.2 48.2" id="static--svg--sweater"><path d="M39.2 41.8c.3-7.1-.7-11.5-1.1-13-.1-.5-.2-.9-.2-1.4 0-2.5-.1-10.5-.9-15.6-.8-5.4-5.1-6.8-5.9-7.1-.6-.3-3.5-1.4-4.8-1.9V0h-2s-1.6 2-4.5 2-4.5-2-4.5-2h-2v2.6c-1.1.4-4.5 1.7-5.1 2-.8.3-5 1.7-5.9 7.1-.8 5.1-.9 13.1-.9 15.6 0 .5-.1.9-.2 1.4-.4 1.5-1.4 5.9-1.1 13V45h5.1v-2.2s2.5-8.6 1.9-13.9v-.6l.7-6.3c-.2-.5-.4-1-.5-1.4-.6-2-.9-4-1.1-5.5-.2-1.5-.2-2.5-.2-2.5s.2 1 .5 2.4c.4 1.5.9 3.4 1.7 5.2.3.8.8 1.7 1.3 2.4s1.1 1.3 1.6 1.7c.3.2.5.3.7.4.2.1.4.2.6.2.2.1.3 0 .4.1h.2c.5.1.9.6.9 1.1s-.6.9-1.1.9h-.1s-.1 0-.2-.1c-.1 0-.4-.1-.6-.2-.3-.1-.6-.2-.9-.4-.3-.2-.6-.4-1-.7-.5-.5-1-1.1-1.4-1.7.2.4.3.7.5 1 .8 1.2.3 6.8.1 7.5-.2.6-2.8 10.9-2.8 11.5 0 .6 2.8 4.3 13.2 4.3s13.2-3.7 13.2-4.3c0-.6-2.6-10.9-2.9-11.6-.3-.7-.7-6.3.1-7.5.5-.7.9-1.8 1.2-2.5-.2.4-.3.8-.5 1.1-.5.9-1 1.7-1.7 2.3-.3.3-.6.5-1 .7-.3.2-.6.3-.9.4-.1.2-.4.2-.5.3-.1 0-.2.1-.2.1-.5.1-1.1-.2-1.2-.7-.1-.5.2-1.1.7-1.2H26.2c.1 0 .2 0 .4-.1.2 0 .4-.1.6-.2.2-.1.5-.2.7-.4.5-.4 1.1-1 1.6-1.7s1-1.6 1.4-2.5c.8-1.8 1.4-3.7 1.7-5.2.4-1.5.5-2.4.5-2.4s0 1-.2 2.5-.5 3.5-1.1 5.5c-.1.3-.2.7-.4 1l.7 6.6v.6c-.6 5.4 1.9 13.9 1.9 13.9V45h5.1l.1-3.2z"/></svg><svg viewBox="0 0 31.3 44.9" id="static--svg--t-shirt"><path d="M4.5 15.1v-.8c0-.3-.1-.6-.1-.9 0-.3-.1-.7-.1-1-.1-.3-.2-.7-.3-1-.1-.3-.1-.7-.3-1-.1-.4-.3-.7-.4-1-.1-.3-.3-.6-.4-.8-.2-.3-.3-.5-.4-.8-.2-.2-.3-.4-.4-.6-.2-.1-.3-.3-.4-.4l-.3-.3C.5 8-.1 10.1 0 12.7v2.4c.8 1.1 3.1 1.5 4.4 1.6 0-.2 0-.8.1-1.6zM31.3 12.7c.1-2.7-.4-4.7-1.4-6.2l-.3.3c-.1.1-.2.3-.3.4-.1.2-.3.4-.4.6-.1.2-.3.5-.4.7-.1.3-.3.5-.4.8-.1.3-.3.6-.4.9-.1.3-.2.7-.3 1-.1.3-.2.7-.3 1 0 .3-.1.7-.1 1 0 .3-.1.6-.1.9v.8c0 .8 0 1.4.1 1.6 1.3-.1 3.6-.5 4.4-1.6l-.1-2.2zM21.9.3l-.2-.2h-.5-.1c-.1 0-.2.1-.2.1-.2.2-.4.3-.7.5 0 0-.1 0-.1.1-.1.1-.3.2-.6.3 0 0-.1 0-.1.1-.2.1-.5.2-.7.3h-.1c-.2.1-.4.1-.6.2h-.1c-.2 0-.4.1-.6.1h-.1c-.2 0-.4 0-.5.1h-.8-.1-.8-.1c-.2 0-.3 0-.5-.1h-.1c-.2 0-.4-.1-.6-.1h-.1c-.2 0-.4-.1-.7-.2h-.1c-.2-.1-.5-.2-.7-.3 0 0-.1 0-.1-.1-.2-.1-.5-.2-.7-.4 0 0-.1 0-.1-.1-.2-.1-.5-.3-.7-.5-.1-.1-.1-.1-.2-.1h-.1-.1-.1-.1c-.1 0-.1.1-.2.1L8 1.8h-.1s1 1.8 7.7 1.8 7.7-1.8 7.7-1.8l-.1-.1L21.9.3z"/><path d="M24.4 2.1l-.1.2c-.3.5-1.8 2.3-8.6 2.3S7.4 2.9 7.1 2.3L7 2.1C5.3 2.7 2.9 4 1.4 6.5l.3.3c.1.1.3.2.4.4.1.2.3.4.5.6.2.2.3.4.5.7.2.2.4.5.5.8.2.3.3.6.5.9.2.3.3.7.4 1 .1.3.2.7.4 1 .1.3.1.7.2 1 .1.3.1.7.2 1 .1.3 0 .6.1.9 0 .9.1 1.5.1 1.7v-.4s.2 15-1 19.5-1.4 4.8-1 5.5c.3.7 2.9 3.5 12.3 3.5s12-2.8 12.3-3.5c.3-.7.2-1-1-5.5-1.1-4.1-1-16.6-1-19.1 0-.2 0-.9.1-1.7 0-.3 0-.6.1-.9.1-.3.1-.6.2-1 .1-.3.1-.7.2-1 .1-.3.2-.7.4-1 .1-.3.2-.7.4-1 .2-.3.3-.6.5-.9.1-.3.3-.6.5-.8.2-.3.3-.5.5-.7.2-.2.3-.4.5-.6.1-.2.3-.3.4-.4l.3-.3c-1.8-2.5-4.1-3.8-5.8-4.4z"/></svg><svg viewBox="0 0 100 100" id="static--svg--technology"><path d="M50 40c-8.285 0-15 6.718-15 15 0 8.285 6.715 15 15 15 8.283 0 15-6.715 15-15 0-8.282-6.717-15-15-15zm40-15H78c-1.65 0-3.428-1.28-3.949-2.846l-3.102-9.309C70.426 11.28 68.65 10 67 10H33c-1.65 0-3.428 1.28-3.949 2.846l-3.102 9.309C25.426 23.72 23.65 25 22 25H10C4.5 25 0 29.5 0 35v45c0 5.5 4.5 10 10 10h80c5.5 0 10-4.5 10-10V35c0-5.5-4.5-10-10-10zM50 80c-13.807 0-25-11.193-25-25 0-13.806 11.193-25 25-25 13.805 0 25 11.194 25 25 0 13.807-11.195 25-25 25zm36.5-38.007a3.5 3.5 0 1 1 0-7 3.5 3.5 0 0 1 0 7z"/></svg><svg viewBox="0 0 22 28" id="static--svg--trash-o"><path d="M8 11.5v9c0 .281-.219.5-.5.5h-1a.494.494 0 0 1-.5-.5v-9c0-.281.219-.5.5-.5h1c.281 0 .5.219.5.5zm4 0v9c0 .281-.219.5-.5.5h-1a.494.494 0 0 1-.5-.5v-9c0-.281.219-.5.5-.5h1c.281 0 .5.219.5.5zm4 0v9c0 .281-.219.5-.5.5h-1a.494.494 0 0 1-.5-.5v-9c0-.281.219-.5.5-.5h1c.281 0 .5.219.5.5zm2 11.313V8.001H4v14.812c0 .75.422 1.188.5 1.188h13c.078 0 .5-.438.5-1.188zM7.5 6h7l-.75-1.828A.6.6 0 0 0 13.484 4H8.531a.526.526 0 0 0-.266.172zm14.5.5v1c0 .281-.219.5-.5.5H20v14.812c0 1.719-1.125 3.187-2.5 3.187h-13c-1.375 0-2.5-1.406-2.5-3.125V7.999H.5a.494.494 0 0 1-.5-.5v-1c0-.281.219-.5.5-.5h4.828L6.422 3.39c.313-.766 1.25-1.391 2.078-1.391h5c.828 0 1.766.625 2.078 1.391l1.094 2.609H21.5c.281 0 .5.219.5.5z"/></svg><svg viewBox="0 0 284.44500732421875 475.62799072265625" id="static--svg--trashbin"><path d="M115.592 475.628h200l20-305h-240zM301.681 74.436l12.997-35.708L208.275 0l-12.996 35.708-78.356-28.519L96.402 63.57l263.114 95.766 20.521-56.381-78.356-28.519zm-75.476-35.985l50.021 18.207-2.736 7.517-50.022-18.206 2.737-7.518z"/></svg><svg viewBox="0 0 10.7 8.4" id="static--svg--turn-btn"><path d="M9.8 3.1L8.3 4.6v-.1c.1-1.4-.2-2.5-1-3.3C6.6.4 5.5 0 4.2 0 1.9 0 0 1.9 0 4.2c0 2.3 1.9 4.2 4.2 4.2v-.9C2.4 7.5.9 6 .9 4.2.9 2.4 2.4.9 4.2.9c1 0 1.9.3 2.5.9.6.6.8 1.5.7 2.6v.2L5.9 3.1l-.8.9 2.7 2.6L10.7 4l-.9-.9z"/></svg><svg viewBox="0 0 24.057 19.55" id="static--svg--twitter"><path d="M24.057 2.314a9.838 9.838 0 0 1-2.835.777A4.948 4.948 0 0 0 23.392.36a9.893 9.893 0 0 1-3.134 1.198 4.936 4.936 0 0 0-8.41 4.502A14.012 14.012 0 0 1 1.675.903a4.913 4.913 0 0 0-.669 2.482c0 1.712.871 3.223 2.196 4.108a4.925 4.925 0 0 1-2.235-.617v.062a4.94 4.94 0 0 0 3.959 4.84 4.931 4.931 0 0 1-2.229.084 4.941 4.941 0 0 0 4.611 3.428 9.9 9.9 0 0 1-6.13 2.113c-.398 0-.791-.023-1.177-.069a13.974 13.974 0 0 0 7.566 2.217c9.078 0 14.043-7.521 14.043-14.043 0-.214-.005-.427-.014-.638a10.086 10.086 0 0 0 2.461-2.556z"/></svg><svg viewBox="0 0 38.003 24.999" id="static--svg--upload"><path d="M18.14 14.416V24.82h1.725V14.419l2.801 2.891 1.221-1.261-4.886-5.044-4.886 5.044 1.221 1.261 2.804-2.894zM5.938 24.9A7.137 7.137 0 0 1 0 17.857a7.143 7.143 0 0 1 3.968-6.405 4.765 4.765 0 0 1-.405-1.928 4.756 4.756 0 0 1 4.75-4.762c1.398 0 2.655.606 3.525 1.569C13.675 2.581 17.521 0 21.97 0c6.167 0 11.18 4.961 11.28 11.12a7.143 7.143 0 0 1 4.753 6.737 7.137 7.137 0 0 1-5.938 7.043l-1.187.099h-6.575v-1.771h7.536c2.276-.375 4.536-3.227 4.536-5.505 0-1.965-1.264-3.727-3.146-4.38l-1.67-.461V11.21c-.077-4.719-4.811-9.439-9.608-9.439-3.4 0-6.416 1.892-8.204 4.644L12.168 8.59 10.31 7.257c-.453-.495-1.244-.842-1.92-.842-1.968 0-3.222 1.902-3.222 3.182 0 .329.067.645.201.941l.571 1.541c-2.839 1.012-4.31 3.865-4.31 5.645 0 2.278 2.516 5.065 4.792 5.44l.789.065h6.536V25h-6.62l-1.189-.1z"/><path d="M18.14 14.416V24.82h1.725V14.419l2.801 2.891 1.221-1.261-4.886-5.044-4.886 5.044 1.221 1.261 2.804-2.894zM5.938 24.9A7.137 7.137 0 0 1 0 17.857a7.143 7.143 0 0 1 3.968-6.405 4.765 4.765 0 0 1-.405-1.928 4.756 4.756 0 0 1 4.75-4.762c1.398 0 2.655.606 3.525 1.569C13.675 2.581 17.521 0 21.97 0c6.167 0 11.18 4.961 11.28 11.12a7.143 7.143 0 0 1 4.753 6.737 7.137 7.137 0 0 1-5.938 7.043l-1.187.099h-6.575v-1.771h7.536c2.276-.375 4.536-3.227 4.536-5.505 0-1.965-1.264-3.727-3.146-4.38l-1.67-.461V11.21c-.077-4.719-4.811-9.439-9.608-9.439-3.4 0-6.416 1.892-8.204 4.644L12.168 8.59 10.31 7.257c-.453-.495-1.244-.842-1.92-.842-1.968 0-3.222 1.902-3.222 3.182 0 .329.067.645.201.941l.571 1.541c-2.839 1.012-4.31 3.865-4.31 5.645 0 2.278 2.516 5.065 4.792 5.44l.789.065h6.536V25h-6.62l-1.189-.1z"/></svg><svg viewBox="0 0 200 75.785455" id="static--svg--visa"><g transform="matrix(.7981 0 0 -.7981 -43.755 118.944)"><path d="M143.448 67.609l10.938 67.713h17.484l-10.937-67.713h-17.485M224.353 133.66c-3.457 1.359-8.894 2.842-15.667 2.842-17.286 0-29.454-9.19-29.555-22.348-.11-9.732 8.683-15.161 15.312-18.396 6.813-3.316 9.102-5.438 9.075-8.403-.047-4.535-5.438-6.613-10.465-6.613-7 0-10.719 1.023-16.469 3.551l-2.249 1.078-2.445-15.157c4.077-1.886 11.635-3.523 19.479-3.609 18.371 0 30.308 9.078 30.448 23.129.063 7.718-4.596 13.569-14.686 18.399-6.11 3.139-9.86 5.219-9.817 8.397.004 2.815 3.168 5.827 10.016 5.827 5.719.092 9.859-1.225 13.085-2.601l1.57-.775 2.368 14.679M247.634 91.616c1.449 3.892 6.965 18.926 6.965 18.926-.102-.178 1.441 3.923 2.324 6.461l1.18-5.84s3.355-16.162 4.046-19.547h-14.515zm21.57 43.637h-13.512c-4.191 0-7.328-1.198-9.164-5.613l-25.965-62.055h18.364s2.996 8.348 3.676 10.18c2.003 0 19.847-.035 22.394-.035.524-2.363 2.129-10.145 2.129-10.145h16.228l-14.15 67.668M128.78 135.265l-17.113-46.164-1.833 9.384c-3.189 10.812-13.116 22.531-24.22 28.403l15.656-59.22 18.504.011 27.534 67.586H128.78" fill="#2b3894"/><path d="M95.781 135.311H67.586l-.233-1.403c21.94-5.609 36.456-19.148 42.481-35.423l-6.127 31.113c-1.057 4.291-4.129 5.563-7.926 5.713" fill="#f79510"/><path d="M288.329 72.034h.828c.585 0 .705.342.705.617 0 .473-.307.583-.783.583h-.75v-1.2zm-.715 1.726h1.707c.398 0 1.271-.105 1.271-1.109 0-.266-.079-.641-.65-.885v-.021c.493-.084.519-.55.548-.925.036-.598 0-.705.156-.916h-.741c-.141.142-.109.253-.141.88 0 .356-.045.719-.847.719h-.588v-1.599h-.715v3.856zm1.41-5.234c1.754 0 3.132 1.456 3.132 3.275 0 1.821-1.378 3.276-3.132 3.276-1.753 0-3.13-1.455-3.13-3.276 0-1.819 1.377-3.275 3.13-3.275zm0 7.137a3.844 3.844 0 0 0 3.862-3.862 3.844 3.844 0 0 0-3.862-3.861 3.842 3.842 0 0 0-3.859 3.861 3.842 3.842 0 0 0 3.859 3.862" fill="#2b3894"/></g></svg><svg viewBox="0 0 29.741 16.47" id="static--svg--vk"><path d="M20.95 4.257c2.471-4.501.436-4.263 5.366-4.247.866.003 2.947.002 3.325.647.318.543-1.089 3.333-2.342 4.699-1.155 1.259-2.407 2.717-2.407 3.583 0 1.421 5.018 4.924 4.844 6.397-.057.484.361 1.109-3.752 1.109 0 0-1.761.118-2.862-.159-1.1-.277-3.553-3.83-4.401-3.83-.848 0-1.407 1.461-1.407 3.337 0 .568-1.1.523-2.742.523 0 0-4.96.216-8.586-4.762S0 1.303 0 .726.649 0 1.01 0H5.7s.758.609.776 1.024 3.03 6.582 4.203 6.582 1.38-5.367.649-6.097S10.083.742 9.777.742c-.108 0-.079-.008.09-.199.31-.353 1-.543 1.514-.543h4.78c.221 0 1.208-.022 1.208.772 0 .932.054 5.7.054 6.365.001.938 1.155 1.441 3.527-2.88z"/></svg><svg viewBox="0 0 1024 1024" id="static--svg--vk2"><path class="dnpath1" d="M928 0H96C43.2 0 0 43.2 0 96v832c0 52.8 43.2 96 96 96h832c52.8 0 96-43.2 96-96V96c0-52.8-43.2-96-96-96zm-98.6 716.8l-93.6 1.4s-20.2 4-46.6-14.2c-35-24-68-86.6-93.8-78.4-26 8.2-25.2 64.4-25.2 64.4s.2 12-5.8 18.4c-6.4 7-19.2 8.4-19.2 8.4h-41.8s-92.4 5.6-173.8-79.2c-88.8-92.4-167.2-275.8-167.2-275.8s-4.6-12 .4-17.8c5.6-6.6 20.6-7 20.6-7l100.2-.6s9.4 1.6 16.2 6.6c5.6 4 8.6 11.8 8.6 11.8s16.2 41 37.6 78c41.8 72.2 61.4 88 75.6 80.4C442.2 502 436 411 436 411s.4-33-10.4-47.6c-8.4-11.4-24.2-14.8-31-15.6-5.6-.8 3.6-13.8 15.6-19.8 18-8.8 49.8-9.4 87.4-9 29.2.2 37.8 2.2 49.2 4.8 34.6 8.4 22.8 40.6 22.8 117.8 0 24.8-4.4 59.6 13.4 71 7.6 5 26.4.8 73.4-79 22.2-37.8 39-82.2 39-82.2s3.6-8 9.2-11.4c5.8-3.4 13.6-2.4 13.6-2.4l105.4-.6s31.6-3.8 36.8 10.6c5.4 15-11.8 50-54.8 107.4-70.6 94.2-78.6 85.4-19.8 139.8 56 52 67.6 77.4 69.6 80.6 22.8 38.4-26 41.4-26 41.4z"/></svg></defs></svg>